<svg width="34" height="25" viewBox="0 0 34 25" fill="none" xmlns="http://www.w3.org/2000/svg">
<path d="M22.9442 23.3893C22.9442 23.5655 22.9191 23.7165 22.8688 23.8423C22.7431 24.1695 22.4667 24.3205 22.0144 24.3205C20.9589 24.3205 19.8783 24.3205 18.8228 24.3205H17.1893C17.1642 24.3205 17.139 24.3205 17.1139 24.3205H1.65861C1.00522 24.3205 0.728784 24.0185 0.728784 23.3893V7.7857H5.07637H22.9191V12.7688C23.1452 12.5926 23.3965 12.4416 23.6478 12.3158C23.6478 12.0641 23.6478 11.7873 23.6478 11.5104C23.6478 9.19506 23.6478 6.85452 23.673 4.53915C23.673 3.40663 22.8688 2.70195 21.939 2.77745C21.8636 2.77745 21.7882 2.77745 21.7128 2.77745C21.7128 2.29928 21.7128 1.84627 21.7128 1.39326C21.6877 0.587912 21.0845 0.00906881 20.3306 0.0342359C19.7023 0.059403 19.1746 0.537578 19.0992 1.14159C19.049 1.41843 19.0741 1.72043 19.0741 2.02244C19.0741 2.24894 19.0741 2.50061 19.0741 2.75228H17.4406C17.4406 2.52578 17.4406 2.32444 17.4406 2.09794C17.4406 1.77077 17.4657 1.41843 17.4155 1.09125C17.2898 0.411742 16.6867 -0.0412654 16.0082 0.00906881C15.3548 0.059403 14.827 0.613079 14.8019 1.29259C14.8019 1.77077 14.8019 2.22377 14.8019 2.72712H13.1684C13.1684 2.24894 13.1684 1.77077 13.1684 1.29259C13.1433 0.764082 12.892 0.361408 12.4145 0.134904C11.937 -0.0915996 11.4595 -0.0160983 11.0323 0.311074C10.7056 0.562745 10.5297 0.889917 10.5297 1.29259C10.5297 1.77077 10.5297 2.22377 10.5297 2.72712H8.89621C8.89621 2.34961 8.89621 1.94694 8.89621 1.54426C8.89621 1.36809 8.89621 1.19192 8.84595 1.01575C8.69517 0.361408 8.06691 -0.0412654 7.41351 0.0342359C6.76012 0.109737 6.25751 0.663413 6.23238 1.31776C6.23238 1.79593 6.23238 2.24894 6.23238 2.75228H4.59889C4.59889 2.34961 4.59889 1.94694 4.59889 1.54426C4.59889 1.34293 4.59889 1.14159 4.54863 0.965419C4.37271 0.336241 3.76958 -0.0664325 3.14132 0.00906881C2.48792 0.0845701 1.98531 0.638246 1.96018 1.31776C1.96018 1.77077 1.96018 2.24894 1.96018 2.72712H1.58323C0.653395 2.72712 0 3.38146 0 4.31264C0 8.16321 0 12.0138 0 15.8895C0 18.3056 0.0251305 20.7216 0 23.1628C0 24.0185 0.301564 24.7232 1.28166 25H22.4164C22.6678 24.8742 22.9693 24.7735 23.1704 24.5973C23.3211 24.4715 23.4468 24.3205 23.5222 24.1695C23.6227 23.943 23.673 23.7165 23.673 23.4396C23.4217 23.3138 23.1704 23.1628 22.9442 22.9866V23.3893ZM19.8029 2.72712C19.8029 2.27411 19.8029 1.8211 19.8029 1.36809C19.8029 1.11642 19.9537 0.940252 20.1798 0.839583C20.406 0.764082 20.607 0.789249 20.7578 0.965419C20.8584 1.09125 20.9589 1.26742 20.9589 1.41843C20.984 2.29928 20.984 3.18012 20.9589 4.06097C20.9589 4.43848 20.7076 4.66498 20.3557 4.66498C20.029 4.66498 19.7777 4.41331 19.7777 4.0358C19.7777 3.60796 19.8029 3.15496 19.8029 2.72712ZM15.5307 2.72712C15.5307 2.29928 15.5307 1.87143 15.5307 1.44359C15.5307 1.06609 15.7569 0.814416 16.0836 0.814416C16.4102 0.814416 16.6867 1.06609 16.6867 1.44359C16.6867 2.32444 16.6867 3.18012 16.6867 4.0358C16.6867 4.41331 16.4354 4.66498 16.0836 4.66498C15.7317 4.66498 15.5055 4.41331 15.5055 4.01064C15.5055 3.5828 15.5307 3.15496 15.5307 2.72712ZM11.2334 1.46876C11.2334 1.06609 11.4847 0.814416 11.8365 0.814416C12.1632 0.814416 12.4145 1.09125 12.4145 1.46876C12.4145 1.8966 12.4145 2.32444 12.4145 2.75228C12.4145 3.18012 12.4145 3.60796 12.4145 4.01064C12.4145 4.41331 12.1883 4.66498 11.8114 4.66498C11.4595 4.66498 11.2334 4.41331 11.2334 4.01064C11.2334 3.15496 11.2334 2.29928 11.2334 1.46876ZM6.96116 1.44359C6.96116 1.06609 7.2376 0.814416 7.56429 0.814416C7.89099 0.814416 8.1423 1.06609 8.1423 1.44359C8.1423 1.87143 8.1423 2.32444 8.1423 2.75228C8.1423 3.18012 8.1423 3.60796 8.1423 4.0358C8.1423 4.41331 7.91612 4.66498 7.58943 4.66498C7.2376 4.66498 6.98629 4.41331 6.98629 4.0358C6.96116 3.18012 6.96116 2.29928 6.96116 1.44359ZM2.68897 1.44359C2.68897 1.06609 2.94027 0.789249 3.26697 0.789249C3.6188 0.789249 3.84497 1.04092 3.8701 1.44359C3.8701 1.87143 3.8701 2.29928 3.8701 2.72712C3.8701 3.18012 3.8701 3.6583 3.8701 4.11131C3.8701 4.38814 3.64393 4.58948 3.39262 4.63982C3.11619 4.69015 2.86488 4.53915 2.76436 4.31264C2.7141 4.21197 2.7141 4.11131 2.7141 4.01064C2.68897 3.15496 2.68897 2.29928 2.68897 1.44359ZM0.728784 4.26231C0.728784 3.93514 0.980091 3.63313 1.30679 3.55763C1.50783 3.5073 1.70888 3.53246 1.90992 3.5073C1.93505 3.83447 1.93505 4.13647 2.01044 4.43848C2.16123 5.06766 2.78949 5.44516 3.44288 5.36966C4.07115 5.29416 4.54863 4.79082 4.57376 4.11131C4.57376 3.90997 4.57376 3.7338 4.57376 3.53246H6.20724C6.20724 3.68347 6.20724 3.83447 6.20724 3.98547C6.20724 4.79082 6.76012 5.36966 7.51403 5.39483C8.29308 5.39483 8.84595 4.81599 8.84595 3.98547C8.84595 3.83447 8.84595 3.68347 8.84595 3.53246H10.4794C10.4794 3.70863 10.4794 3.8848 10.4794 4.06097C10.4794 4.81599 11.0574 5.39483 11.8114 5.39483C12.5401 5.39483 13.1181 4.81599 13.1181 4.08614C13.1181 3.90997 13.1181 3.7338 13.1181 3.53246H14.5757C14.626 3.53246 14.6762 3.53246 14.7516 3.55763C14.7516 3.7338 14.7516 3.90997 14.7516 4.08614C14.7768 4.84115 15.3296 5.39483 16.0584 5.39483C16.7872 5.39483 17.3652 4.81599 17.3903 4.06097C17.3903 3.8848 17.3903 3.7338 17.3903 3.55763H19.0238C19.0238 3.7338 19.0238 3.8848 19.0238 4.06097C19.049 4.84115 19.6018 5.42 20.3557 5.42C21.1097 5.42 21.6625 4.84115 21.6877 4.06097C21.6877 3.90997 21.6877 3.7338 21.6877 3.55763H21.9641C22.6175 3.55763 22.9191 3.83447 22.9191 4.51398V7.08102H0.703656C0.728787 6.09951 0.703654 5.16832 0.728784 4.26231Z" fill="white"/>
<path d="M20.5065 14.455C20.2301 14.9583 20.0039 15.512 19.8531 16.0908C19.7777 16.3677 19.7275 16.6697 19.6772 16.9717C19.6521 17.2234 19.627 17.475 19.627 17.7267C19.627 17.8022 19.627 17.8525 19.627 17.928C19.627 18.3307 19.6521 18.7334 19.7275 19.1361C19.8783 19.1361 20.029 19.1361 20.1547 19.1361C20.2803 19.1361 20.3809 19.1612 20.4563 19.2116C20.3809 18.7837 20.3306 18.3559 20.3306 17.928C20.3306 17.8525 20.3306 17.777 20.3306 17.7015C20.3557 17.1227 20.4563 16.569 20.607 16.0405C21.0091 14.7066 21.8636 13.5741 22.9442 12.7939V11.9383C21.9138 12.5423 21.0845 13.398 20.5065 14.455ZM26.6384 10.8561C25.5829 10.8561 24.5777 11.0826 23.673 11.5104C23.4217 11.6363 23.1704 11.7621 22.9442 11.9131C21.939 12.5423 21.0845 13.4231 20.5065 14.455C20.2301 14.9583 20.0039 15.512 19.8531 16.0908C19.7777 16.3677 19.7275 16.6697 19.6772 16.9717C19.6521 17.2234 19.627 17.475 19.627 17.7267C19.627 17.8022 19.627 17.8525 19.627 17.928C19.627 18.3307 19.6521 18.7334 19.7275 19.1361C19.8783 19.9917 20.1798 20.7971 20.607 21.5269C21.1599 22.4833 21.939 23.2635 22.8688 23.8675C23.0698 23.9933 23.296 24.1191 23.5222 24.245C24.452 24.7232 25.5075 24.9748 26.6384 24.9748C30.5085 24.9748 33.6749 21.8038 33.6749 17.928C33.6749 14.0523 30.5085 10.8561 26.6384 10.8561ZM26.6384 24.2198C25.5578 24.2198 24.5525 23.943 23.673 23.49C23.4217 23.3641 23.1704 23.2131 22.9442 23.037C21.8384 22.2316 21.0091 21.0991 20.607 19.7652C20.5568 19.5639 20.5065 19.3877 20.4563 19.1864C20.3809 18.7585 20.3306 18.3307 20.3306 17.9029C20.3306 17.8274 20.3306 17.7519 20.3306 17.6764C20.3557 17.0975 20.4563 16.5438 20.607 16.0153C21.0091 14.6815 21.8636 13.549 22.9442 12.7688C23.1704 12.5926 23.4217 12.4416 23.673 12.3158C24.5525 11.8376 25.5578 11.5608 26.6384 11.5608C30.1315 11.5608 32.9713 14.4046 32.9713 17.9029C32.9713 21.4011 30.1064 24.2198 26.6384 24.2198ZM20.5065 14.455C20.2301 14.9583 20.0039 15.512 19.8531 16.0908C19.7777 16.3677 19.7275 16.6697 19.6772 16.9717C19.6521 17.2234 19.627 17.475 19.627 17.7267C19.627 17.8022 19.627 17.8525 19.627 17.928C19.627 18.3307 19.6521 18.7334 19.7275 19.1361C19.8783 19.1361 20.029 19.1361 20.1547 19.1361C20.2803 19.1361 20.3809 19.1612 20.4563 19.2116C20.3809 18.7837 20.3306 18.3559 20.3306 17.928C20.3306 17.8525 20.3306 17.777 20.3306 17.7015C20.3557 17.1227 20.4563 16.569 20.607 16.0405C21.0091 14.7066 21.8636 13.5741 22.9442 12.7939V11.9383C21.9138 12.5423 21.0845 13.398 20.5065 14.455Z" fill="white"/>
<path d="M20.5819 19.7652C20.5316 19.5639 20.4814 19.3877 20.4311 19.1864C20.3557 19.1361 20.2552 19.1109 20.1296 19.1109C19.9788 19.1109 19.828 19.1109 19.7023 19.1109C19.0238 19.1109 18.3453 19.1109 17.6668 19.1109C17.3401 19.1109 17.2144 19.2367 17.2144 19.5639C17.2144 20.3944 17.2144 21.2249 17.2144 22.0554C17.2144 22.3826 17.3401 22.5085 17.6668 22.5085C18.4961 22.5085 19.3254 22.5085 20.1547 22.5085C20.4814 22.5085 20.607 22.3826 20.607 22.0554C20.607 21.8793 20.607 21.7031 20.607 21.5269C20.607 21.3004 20.607 21.0739 20.607 20.8223C20.5819 20.4699 20.607 20.1176 20.5819 19.7652ZM19.8531 21.7534H17.9683V19.8659H19.8531V21.7534Z" fill="white"/>
<path d="M5.98107 19.1109C5.57898 19.1109 5.17689 19.1109 4.77481 19.1109C4.37272 19.1109 3.97063 19.1109 3.56854 19.1109C3.21672 19.1109 3.09106 19.2367 3.09106 19.5639C3.09106 20.3944 3.09106 21.1998 3.09106 22.0303C3.09106 22.3575 3.21671 22.4833 3.54341 22.4833C4.37272 22.4833 5.17689 22.4833 6.0062 22.4833C6.33289 22.4833 6.45855 22.3575 6.48368 22.0303C6.48368 21.1998 6.48368 20.3693 6.48368 19.5387C6.43342 19.2367 6.30777 19.1109 5.98107 19.1109ZM5.6795 21.7534H3.79471V19.8659H5.6795V21.7534Z" fill="white"/>
<path d="M20.5819 14.7821C20.5819 14.6311 20.5568 14.5305 20.4814 14.4298C20.406 14.3291 20.2803 14.304 20.1044 14.304C19.3002 14.304 18.4709 14.304 17.6668 14.304C17.3149 14.304 17.1893 14.4298 17.1893 14.757C17.1893 15.1596 17.1893 15.5623 17.1893 15.965C17.1893 16.3677 17.1893 16.7955 17.1893 17.1982C17.1893 17.5253 17.3149 17.6512 17.6416 17.6512C18.295 17.6512 18.9233 17.6512 19.5767 17.6512C19.7526 17.6512 19.9285 17.6512 20.1044 17.6512C20.1798 17.6512 20.2301 17.6512 20.2803 17.626C20.3055 17.0472 20.406 16.4935 20.5568 15.965C20.5819 15.6126 20.5819 15.21 20.5819 14.7821ZM19.828 16.9465H17.9432V15.059H19.828V16.9465Z" fill="white"/>
<path d="M6.0062 9.52222C5.57898 9.52222 5.15176 9.52222 4.74967 9.52222C4.34759 9.52222 3.92037 9.52222 3.51828 9.52222C3.21672 9.52222 3.09106 9.64805 3.09106 9.95006C3.09106 10.7806 3.09106 11.6111 3.09106 12.4668C3.09106 12.7688 3.21672 12.8946 3.51828 12.8946C4.37272 12.8946 5.20202 12.8946 6.05646 12.8946C6.33289 12.8946 6.48368 12.7688 6.48368 12.4668C6.48368 11.6363 6.48368 10.7806 6.48368 9.92489C6.43342 9.64805 6.30776 9.52222 6.0062 9.52222ZM5.6795 12.1396H3.79471V10.2521H5.6795V12.1396Z" fill="white"/>
<path d="M20.1547 9.52222C19.7275 9.52222 19.3254 9.52222 18.9233 9.52222C18.4961 9.52222 18.0689 9.52222 17.6417 9.52222C17.3903 9.52222 17.2396 9.64805 17.2396 9.89972C17.2396 10.7806 17.2396 11.6363 17.2396 12.5171C17.2396 12.7688 17.3903 12.8946 17.6417 12.8946C18.4961 12.8946 19.3505 12.8946 20.205 12.8946C20.4814 12.8946 20.6322 12.7688 20.6322 12.4668C20.6322 11.6111 20.6322 10.7806 20.6322 9.92489C20.5819 9.64805 20.4563 9.52222 20.1547 9.52222ZM19.8531 12.1648H17.9684V10.2772H19.8531V12.1648Z" fill="white"/>
<path d="M5.98105 14.304C5.15174 14.304 4.32243 14.304 3.49312 14.304C3.19156 14.304 3.04077 14.4298 3.04077 14.757C3.04077 15.1848 3.04077 15.5875 3.04077 15.9902C3.04077 16.418 3.04077 16.8207 3.04077 17.2233C3.04077 17.5505 3.16643 17.6763 3.49312 17.6763C4.32243 17.6763 5.15174 17.6763 6.00618 17.6763C6.30774 17.6763 6.4334 17.5505 6.4334 17.2485C6.4334 16.418 6.4334 15.5623 6.4334 14.7318C6.4334 14.455 6.30775 14.304 5.98105 14.304ZM5.67948 16.9465H3.79469V15.059H5.67948V16.9465Z" fill="white"/>
<path d="M15.4301 19.1109C14.6008 19.1109 13.7715 19.1109 12.9422 19.1109C12.6155 19.1109 12.4899 19.2367 12.4899 19.5639C12.4899 20.3944 12.4899 21.2249 12.4899 22.0806C12.4899 22.3826 12.6155 22.5085 12.9171 22.5085C13.7464 22.5085 14.6008 22.5085 15.4301 22.5085C15.7317 22.5085 15.8574 22.3826 15.8574 22.0554C15.8574 21.6528 15.8574 21.2249 15.8574 20.8223C15.8574 20.4196 15.8574 19.9917 15.8574 19.5891C15.8574 19.2367 15.7317 19.1109 15.4301 19.1109ZM15.1286 21.7283H13.2438V19.8407H15.1034V21.7283H15.1286Z" fill="white"/>
<path d="M10.7056 19.1109C9.87628 19.1109 9.04698 19.1109 8.21767 19.1109C7.9161 19.1109 7.76532 19.2367 7.76532 19.5639V22.0554C7.76532 22.3826 7.89097 22.5085 8.21767 22.5085C9.04698 22.5085 9.90141 22.5085 10.7307 22.5085C11.0323 22.5085 11.1579 22.3826 11.1579 22.0806C11.1579 21.6779 11.1579 21.2501 11.1579 20.8474C11.1579 20.4448 11.1579 20.0169 11.1579 19.6142C11.1579 19.2367 11.0323 19.1109 10.7056 19.1109ZM10.404 21.7534H8.51924V19.8659H10.404V21.7534Z" fill="white"/>
<path d="M10.7056 9.52222C9.87628 9.52222 9.04698 9.52222 8.19254 9.52222C7.89097 9.52222 7.76532 9.64805 7.76532 9.95006C7.76532 10.7806 7.76532 11.6111 7.76532 12.4668C7.76532 12.7688 7.89097 12.8946 8.19254 12.8946C9.02185 12.8946 9.87628 12.8946 10.7056 12.8946C11.0323 12.8946 11.1579 12.7688 11.1579 12.4416C11.1579 12.0389 11.1579 11.6111 11.1579 11.2084C11.1579 10.8057 11.1579 10.3779 11.1579 9.97523C11.1579 9.64805 11.0323 9.52222 10.7056 9.52222ZM10.404 12.1648H8.51924V10.2772H10.404V12.1648Z" fill="white"/>
<path d="M15.8825 9.92489C15.8825 9.64805 15.7569 9.52222 15.4804 9.52222C14.626 9.52222 13.7715 9.52222 12.9171 9.52222C12.6407 9.52222 12.515 9.64805 12.515 9.95006C12.515 10.8057 12.515 11.6363 12.515 12.4919C12.515 12.7939 12.6407 12.9198 12.9171 12.9198C13.7715 12.9198 14.6008 12.9198 15.4553 12.9198C15.7569 12.9198 15.8825 12.7939 15.8825 12.4919C15.8825 12.0893 15.8825 11.6614 15.8825 11.2587C15.8825 10.8057 15.8825 10.3527 15.8825 9.92489ZM15.1286 12.1648H13.2438V10.2772H15.1286V12.1648Z" fill="white"/>
<path d="M10.7056 14.304C9.87628 14.304 9.04698 14.304 8.21767 14.304C7.89097 14.304 7.76532 14.4298 7.76532 14.757V15.9902C7.76532 16.3928 7.76532 16.8207 7.76532 17.2233C7.76532 17.5253 7.89097 17.6512 8.19254 17.6512C9.02184 17.6512 9.85115 17.6512 10.7056 17.6512C11.0323 17.6512 11.1328 17.5253 11.1328 17.1982C11.1328 16.3677 11.1328 15.5371 11.1328 14.7066C11.1579 14.455 11.0323 14.304 10.7056 14.304ZM10.404 16.9465H8.51923V15.0841H10.404V16.9465Z" fill="white"/>
<path d="M15.4301 14.304C14.6008 14.304 13.7715 14.304 12.9422 14.304C12.6407 14.304 12.4899 14.4298 12.4899 14.757C12.4899 15.5875 12.4899 16.418 12.4899 17.2485C12.4899 17.5757 12.6155 17.7015 12.9171 17.7015C13.7464 17.7015 14.6008 17.7015 15.4301 17.7015C15.7317 17.7015 15.8574 17.5757 15.8574 17.2485C15.8574 16.8458 15.8574 16.418 15.8574 16.0153C15.8574 15.6126 15.8574 15.1848 15.8574 14.7821C15.8574 14.455 15.7317 14.304 15.4301 14.304ZM15.1286 16.9465H13.2438V15.059H15.1286V16.9465Z" fill="white"/>
<path d="M29.1514 16.1411H23.1704C22.9693 16.1411 22.8185 15.9901 22.8185 15.7888C22.8185 15.5875 22.9693 15.4365 23.1704 15.4365H29.1514C29.3525 15.4365 29.5033 15.5875 29.5033 15.7888C29.5033 15.9901 29.3274 16.1411 29.1514 16.1411Z" fill="white"/>
<path d="M28.1462 17.928C28.0457 17.928 27.9703 17.9028 27.8949 17.8273C27.7441 17.6763 27.7441 17.4498 27.8949 17.324L29.4279 15.7888L27.8949 14.2536C27.7441 14.1026 27.7441 13.8761 27.8949 13.7503C28.0457 13.5993 28.2718 13.5993 28.3975 13.7503L30.4331 15.7888L28.3975 17.8273C28.3221 17.8777 28.2467 17.928 28.1462 17.928Z" fill="white"/>
<path d="M29.9305 20.042H23.9494C23.7484 20.042 23.5976 19.891 23.5976 19.6897C23.5976 19.4883 23.7484 19.3373 23.9494 19.3373H29.9305C30.1315 19.3373 30.2823 19.4883 30.2823 19.6897C30.2823 19.891 30.1315 20.042 29.9305 20.042Z" fill="white"/>
<path d="M24.9546 21.8289C24.8541 21.8289 24.7787 21.8037 24.7033 21.7282L22.6677 19.6897L24.7033 17.6512C24.8541 17.5002 25.0803 17.5002 25.2059 17.6512C25.3567 17.8022 25.3567 18.0287 25.2059 18.1545L23.6729 19.6897L25.2059 21.2249C25.3567 21.3759 25.3567 21.6024 25.2059 21.7282C25.1305 21.7786 25.03 21.8289 24.9546 21.8289Z" fill="white"/>
</svg>
