<svg width="34" height="25" viewBox="0 0 34 25" fill="none" xmlns="http://www.w3.org/2000/svg">
<path d="M16.9432 10.6928C13.9857 10.6928 11.6046 8.28313 11.6046 5.34639C11.6046 2.40964 13.9857 0 16.9432 0C19.9008 0 22.2819 2.40964 22.2819 5.34639C22.2819 8.28313 19.8757 10.6928 16.9432 10.6928ZM16.9432 0.702811C14.3867 0.702811 12.3064 2.78614 12.3064 5.34639C12.3064 7.90663 14.3867 9.98996 16.9432 9.98996C19.4998 9.98996 21.5801 7.90663 21.5801 5.34639C21.5801 2.78614 19.4998 0.702811 16.9432 0.702811Z" fill="white"/>
<path d="M24.6629 25C24.4624 25 24.312 24.8494 24.312 24.6486V18.0723C24.312 14.0061 21.0036 10.6928 16.9432 10.6928C12.8829 10.6928 9.57444 14.0061 9.57444 18.0723V24.6486C9.57444 24.8494 9.42406 25 9.22354 25C9.02303 25 8.87265 24.8494 8.87265 24.6486V18.0723C8.87265 13.6044 12.5069 9.98999 16.9432 9.98999C21.3796 9.98999 25.0138 13.6295 25.0138 18.0723V24.6486C25.0138 24.8494 24.8634 25 24.6629 25Z" fill="white"/>
<path d="M6.71715 13.2279C4.26088 13.2279 2.25577 11.2199 2.25577 8.76005C2.25577 6.30021 4.26088 4.29218 6.71715 4.29218C9.17342 4.29218 11.1785 6.30021 11.1785 8.76005C11.1785 11.2199 9.17342 13.2279 6.71715 13.2279ZM6.71715 5.02009C4.66191 5.02009 2.95756 6.70181 2.95756 8.78515C2.95756 10.8685 4.63684 12.5502 6.71715 12.5502C8.79746 12.5502 10.4767 10.8685 10.4767 8.78515C10.4767 6.70181 8.77239 5.02009 6.71715 5.02009Z" fill="white"/>
<path d="M0.350895 25C0.150384 25 0 24.8494 0 24.6486V19.252C0 15.5371 3.00767 12.5251 6.71714 12.5251C8.09565 12.5251 9.44911 12.9518 10.577 13.755C10.7274 13.8805 10.7775 14.0813 10.6522 14.257C10.5269 14.4076 10.3263 14.4578 10.1509 14.3323C9.14834 13.6295 7.94527 13.253 6.71714 13.253C3.4087 13.253 0.726854 15.9387 0.726854 19.252V24.6486C0.70179 24.8494 0.551407 25 0.350895 25Z" fill="white"/>
<path d="M27.1693 13.2279C24.7131 13.2279 22.7079 11.2199 22.7079 8.76005C22.7079 6.30021 24.7131 4.29218 27.1693 4.29218C29.6256 4.29218 31.6307 6.30021 31.6307 8.76005C31.6307 11.2199 29.6256 13.2279 27.1693 13.2279ZM27.1693 5.02009C25.1141 5.02009 23.4097 6.70181 23.4097 8.78515C23.4097 10.8685 25.089 12.5502 27.1693 12.5502C29.2496 12.5502 30.9289 10.8685 30.9289 8.78515C30.9289 6.70181 29.2246 5.02009 27.1693 5.02009Z" fill="white"/>
<path d="M33.8614 25H0.350895C0.150384 25 0 24.8494 0 24.6486C0 24.4478 0.150384 24.2972 0.350895 24.2972H33.1596V19.252C33.1596 17.6456 32.533 16.1395 31.4051 15.01C30.2772 13.8805 28.7734 13.253 27.1693 13.253C25.9161 13.253 24.7381 13.6295 23.7356 14.3323C23.5852 14.4327 23.3596 14.4076 23.2343 14.257C23.109 14.1064 23.1591 13.8805 23.3095 13.755C24.4373 12.9518 25.7657 12.5251 27.1693 12.5251C28.9739 12.5251 30.6532 13.2279 31.9064 14.4829C33.1847 15.763 33.8614 17.4448 33.8614 19.2269V25Z" fill="white"/>
</svg>
