<svg width="13" height="13" viewBox="0 0 13 13" fill="none" xmlns="http://www.w3.org/2000/svg">
<path d="M11.4219 12.125C10.151 12.125 8.88802 11.8125 7.63281 11.1875C6.3776 10.5625 5.25 9.75 4.25 8.75C3.25 7.75 2.4375 6.6224 1.8125 5.36719C1.1875 4.11198 0.875 2.84896 0.875 1.57812C0.875 1.38021 0.942708 1.21354 1.07813 1.07813C1.21354 0.942708 1.38021 0.875 1.57812 0.875H3.76562C3.91146 0.875 4.03906 0.924479 4.14844 1.02344C4.25781 1.1224 4.32812 1.25521 4.35937 1.42188L4.78125 3.39063C4.80208 3.53646 4.79948 3.66927 4.77344 3.78906C4.7474 3.90885 4.69271 4.01042 4.60938 4.09375L3.04687 5.67188C3.63021 6.64063 4.28385 7.48438 5.00781 8.20313C5.73177 8.92188 6.55208 9.53125 7.46875 10.0312L8.95313 8.5C9.05729 8.38542 9.17708 8.30469 9.3125 8.25781C9.44792 8.21094 9.58333 8.20312 9.71875 8.23437L11.5781 8.64063C11.7344 8.67188 11.8646 8.75 11.9688 8.875C12.0729 9 12.125 9.14583 12.125 9.3125V11.4219C12.125 11.6198 12.0573 11.7865 11.9219 11.9219C11.7865 12.0573 11.6198 12.125 11.4219 12.125ZM2.57812 4.8125L3.84375 3.53125L3.48438 1.8125H1.8125C1.8125 2.21875 1.875 2.66406 2 3.14844C2.125 3.63281 2.31771 4.1875 2.57812 4.8125ZM11.1875 11.1875V9.51563L9.57812 9.1875L8.34375 10.4844C8.77083 10.6823 9.23437 10.8437 9.73437 10.9687C10.2344 11.0937 10.7188 11.1667 11.1875 11.1875Z" fill="#CCAF65"/>
</svg>
