<svg width="37" height="25" viewBox="0 0 37 25" fill="none" xmlns="http://www.w3.org/2000/svg">
<path d="M26.3293 22.5109H1.77532C0.792065 22.5109 0 21.7177 0 20.733V12.2264C0 11.2418 0.792065 10.4485 1.77532 10.4485H26.3293C27.3126 10.4485 28.1046 11.2418 28.1046 12.2264V20.733C28.1046 21.7177 27.3126 22.5109 26.3293 22.5109ZM1.77532 11.2144C1.22907 11.2144 0.764749 11.652 0.764749 12.2264V20.733C0.764749 21.2801 1.20175 21.745 1.77532 21.745H26.3293C26.8756 21.745 27.3399 21.3074 27.3399 20.733V12.2264C27.3399 11.6794 26.9029 11.2144 26.3293 11.2144H1.77532Z" fill="white"/>
<path d="M22.724 11.0503C22.5055 11.0503 22.3416 10.8862 22.3416 10.6674V6.04487C22.3416 5.49782 21.9046 5.03283 21.3311 5.03283H6.77349C6.22723 5.03283 5.76293 5.47047 5.76293 6.04487V10.6674C5.76293 10.8862 5.59904 11.0503 5.38054 11.0503C5.16204 11.0503 4.99817 10.8862 4.99817 10.6674V6.04487C4.99817 5.06018 5.79023 4.26697 6.77349 4.26697H21.3311C22.3143 4.26697 23.1064 5.06018 23.1064 6.04487V10.6674C23.1064 10.8862 22.9152 11.0503 22.724 11.0503Z" fill="white"/>
<path d="M26.22 10.6674C26.0015 10.6674 25.8377 10.5033 25.8377 10.2845V1.7779C25.8377 1.23085 25.4007 0.765864 24.8271 0.765864H3.25017C2.70392 0.765864 2.2396 1.2035 2.2396 1.7779V10.2845C2.2396 10.5033 2.07573 10.6674 1.85723 10.6674C1.63873 10.6674 1.47485 10.5033 1.47485 10.2845V1.7779C1.47485 0.793217 2.26692 0 3.25017 0H24.8271C25.8104 0 26.6024 0.793217 26.6024 1.7779V10.2845C26.6024 10.5033 26.4385 10.6674 26.22 10.6674Z" fill="white"/>
<path d="M34.96 22.7845H30.0164C29.2517 22.7845 28.5962 22.1554 28.5962 21.3622V12.883C28.5962 12.1171 29.2244 11.4606 30.0164 11.4606H34.96C35.7248 11.4606 36.3803 12.0897 36.3803 12.883V21.3622C36.353 22.1554 35.7248 22.7845 34.96 22.7845ZM30.0164 12.2812C29.6614 12.2812 29.3883 12.5547 29.3883 12.9103V21.3895C29.3883 21.7451 29.6614 22.0186 30.0164 22.0186H34.96C35.3151 22.0186 35.5882 21.7451 35.5882 21.3895V12.9103C35.5882 12.5547 35.3151 12.2812 34.96 12.2812H30.0164Z" fill="white"/>
<path d="M14.0386 11.2145C13.8201 11.2145 13.6562 11.0503 13.6562 10.8315V4.6499C13.6562 4.43108 13.8201 4.26697 14.0386 4.26697C14.2571 4.26697 14.421 4.43108 14.421 4.6499V10.8315C14.4483 11.0503 14.2571 11.2145 14.0386 11.2145Z" fill="white"/>
<path d="M27.6949 17.697H0.382374C0.163874 17.697 0 17.5328 0 17.314C0 17.0952 0.163874 16.9311 0.382374 16.9311H27.6949C27.9134 16.9311 28.0773 17.0952 28.0773 17.314C28.0773 17.5328 27.9134 17.697 27.6949 17.697Z" fill="white"/>
<path d="M5.02556 25C4.80706 25 4.64319 24.8359 4.64319 24.617V22.128C4.64319 21.9092 4.80706 21.7451 5.02556 21.7451C5.24406 21.7451 5.40793 21.9092 5.40793 22.128V24.617C5.40793 24.8359 5.21675 25 5.02556 25Z" fill="white"/>
<path d="M30.6174 24.9179C30.3989 24.9179 30.235 24.7538 30.235 24.535V22.675C30.235 22.4562 30.3989 22.2921 30.6174 22.2921C30.8359 22.2921 30.9997 22.4562 30.9997 22.675V24.535C31.0271 24.7538 30.8359 24.9179 30.6174 24.9179Z" fill="white"/>
<path d="M34.3592 24.9179C34.1407 24.9179 33.9768 24.7538 33.9768 24.535V22.675C33.9768 22.4562 34.1407 22.2921 34.3592 22.2921C34.5777 22.2921 34.7416 22.4562 34.7416 22.675V24.535C34.7416 24.7538 34.5777 24.9179 34.3592 24.9179Z" fill="white"/>
<path d="M32.502 12.0076C32.2835 12.0076 32.1196 11.8435 32.1196 11.6247V9.21771C32.1196 8.99889 32.2835 8.83478 32.502 8.83478C32.7205 8.83478 32.8844 8.99889 32.8844 9.21771V11.5974C32.8844 11.8162 32.6932 12.0076 32.502 12.0076Z" fill="white"/>
<path d="M23.0791 25C22.8607 25 22.6968 24.8359 22.6968 24.617V22.128C22.6968 21.9092 22.8607 21.7451 23.0791 21.7451C23.2976 21.7451 23.4615 21.9092 23.4615 22.128V24.617C23.4615 24.8359 23.2976 25 23.0791 25Z" fill="white"/>
<path d="M34.4684 9.29979H30.4808C30.0438 9.29979 29.6614 9.10832 29.4429 8.80745C29.279 8.56128 29.2517 8.2604 29.361 7.98688L30.2077 5.93546C30.3715 5.52517 30.8085 5.25165 31.3275 5.25165H33.649C34.168 5.25165 34.605 5.52517 34.7689 5.93546L35.6156 7.98688C35.7248 8.2604 35.6975 8.56128 35.5336 8.80745C35.2878 9.10832 34.9054 9.29979 34.4684 9.29979ZM31.3275 6.04487C31.1363 6.04487 30.9724 6.12692 30.9178 6.23633L30.0711 8.28775C30.0711 8.31511 30.0438 8.34246 30.0984 8.36981C30.153 8.45187 30.2896 8.53392 30.4808 8.53392H34.4684C34.6596 8.53392 34.7962 8.45187 34.8508 8.36981C34.8781 8.31511 34.8781 8.28775 34.8781 8.28775L34.0314 6.23633C34.0041 6.15427 33.8402 6.04487 33.6217 6.04487H31.3275Z" fill="white"/>
<path d="M33.3213 17.6422C33.5929 17.6422 33.813 17.4218 33.813 17.1499C33.813 16.878 33.5929 16.6575 33.3213 16.6575C33.0498 16.6575 32.8297 16.878 32.8297 17.1499C32.8297 17.4218 33.0498 17.6422 33.3213 17.6422Z" fill="white"/>
</svg>
