<svg width="16" height="16" viewBox="0 0 16 16" fill="none" xmlns="http://www.w3.org/2000/svg">
<circle cx="8" cy="8" r="7.75" stroke="#C6343F" stroke-width="0.5"/>
<path d="M8.11313 5C8.28646 5 8.43271 5.06094 8.55188 5.18281C8.67375 5.30469 8.73469 5.45094 8.73469 5.62156C8.73469 5.7949 8.67375 5.9425 8.55188 6.06438C8.43271 6.18625 8.28646 6.24719 8.11313 6.24719C7.9425 6.24719 7.79625 6.18625 7.67438 6.06438C7.5525 5.9425 7.49156 5.7949 7.49156 5.62156C7.49156 5.45094 7.55115 5.30469 7.67031 5.18281C7.79219 5.06094 7.93979 5 8.11313 5ZM7 10.8825V10.5819C7.30333 10.5602 7.47667 10.5372 7.52 10.5128C7.56333 10.4857 7.59042 10.437 7.60125 10.3666C7.62833 10.2176 7.64188 9.83438 7.64188 9.21688C7.64188 8.36917 7.62969 7.88708 7.60531 7.77063C7.59448 7.71646 7.57688 7.68125 7.5525 7.665C7.49833 7.62979 7.31417 7.61083 7 7.60813V7.29938C7.40896 7.25604 7.71771 7.21 7.92625 7.16125C8.13479 7.1125 8.36229 7.03802 8.60875 6.93781L8.70625 6.99063C8.67375 7.41313 8.6575 7.8099 8.6575 8.18094V9.56219C8.6575 10.0334 8.66833 10.3124 8.69 10.3991C8.70083 10.4478 8.7225 10.4803 8.755 10.4966C8.82813 10.5318 9.00552 10.5548 9.28719 10.5656V10.8825C8.9026 10.8717 8.48417 10.8663 8.03188 10.8663C7.64188 10.8663 7.29792 10.8717 7 10.8825Z" fill="#C6343F"/>
</svg>
