<svg width="35" height="29" viewBox="0 0 35 29" fill="none" xmlns="http://www.w3.org/2000/svg">
<path d="M34.3802 13.2856C34.2101 13.6626 34.0131 14.0217 33.6281 14.2282C33.5565 14.2641 33.5207 14.4167 33.5207 14.5065C33.5117 15.1259 33.5296 15.7363 33.5117 16.3557C33.4043 21.4096 31.0854 25.0811 26.6088 27.3971C26.5641 27.424 26.5103 27.451 26.4656 27.5407C26.573 27.5407 26.6894 27.5407 26.7968 27.5407C28.3099 27.5407 29.8141 27.5407 31.3271 27.5407C31.4793 27.5407 31.6763 27.5318 31.7748 27.6215C31.9001 27.7472 32.0344 27.9626 32.0076 28.1152C31.9807 28.2679 31.7837 28.4205 31.6315 28.5192C31.542 28.5731 31.3898 28.5461 31.2734 28.5461C21.3712 28.5461 11.469 28.5461 1.5668 28.5461C1.02961 28.5461 0.814738 28.4025 0.805785 28.0614C0.796832 27.7113 1.01171 27.5587 1.53995 27.5407C1.57576 27.5407 1.60262 27.5318 1.66529 27.5228C1.67424 27.424 1.6832 27.3343 1.6832 27.2355C1.6832 25.135 1.6832 23.0254 1.6832 20.9249C1.6832 20.7812 1.66529 20.6286 1.62052 20.5029C1.14601 19.1295 0.922176 17.7112 0.940083 16.248C0.949036 15.6914 0.940083 15.1259 0.940083 14.5693C0.940083 14.3987 0.913223 14.282 0.73416 14.2013C0.34022 14.0217 0.17011 13.6537 0 13.2856C0 12.9265 0 12.5675 0 12.2084C0.268595 11.4274 0.814738 11.0325 1.6832 11.0773C1.6832 10.6016 1.6832 10.1617 1.6832 9.71287C1.67424 9.273 1.8354 8.91393 2.16667 8.6177C2.24725 8.54589 2.30992 8.39328 2.30992 8.27658C2.32782 7.76491 2.31887 5.00006 2.31887 4.47941C2.31887 3.99466 2.48898 3.76127 2.8292 3.77024C3.16942 3.77922 3.32163 4.01262 3.33058 4.49736C3.33058 5.01802 3.33058 7.79184 3.33058 8.33942C3.67975 8.33942 3.98416 8.33942 4.34229 8.33942C4.34229 8.20477 4.34229 8.07012 4.34229 7.93546C4.34229 6.54407 4.32438 5.16164 4.35124 3.77024C4.36915 2.5494 5.47039 1.74149 6.58953 2.11852C7.23416 2.33396 7.64601 2.80075 7.73554 3.48299C7.78926 3.9049 7.77135 4.33578 7.7803 4.75769C7.78926 5.2155 7.7803 5.67332 7.7803 6.15806C8.12052 6.15806 8.43388 6.15806 8.72039 6.15806C8.72039 5.15267 8.82782 4.14727 8.69353 3.1688C8.4876 1.81331 7.19835 0.951538 5.78375 1.05028C4.5303 1.14005 3.44697 2.26215 3.34848 3.5548C3.33058 3.83308 3.33953 4.11136 3.32163 4.38964C3.29477 4.68587 3.07989 4.88336 2.82025 4.86541C2.53375 4.84746 2.36364 4.68587 2.33678 4.39862C2.16667 2.3968 3.13361 0.942561 4.62879 0.30521C7.073 -0.736095 9.67837 1.0054 9.77686 3.73434C9.80372 4.58713 9.79477 5.43992 9.77686 6.28374C9.76791 6.86723 9.4635 7.17244 8.88154 7.18142C8.47865 7.19039 8.07576 7.19039 7.67286 7.18142C7.06405 7.17244 6.7686 6.87621 6.75964 6.26579C6.75069 5.45788 6.75964 4.64997 6.75069 3.85103C6.74174 3.39322 6.50895 3.09699 6.15083 3.04313C5.73003 2.98926 5.38085 3.25857 5.35399 3.70741C5.33609 4.07545 5.34504 4.4435 5.34504 4.81155C5.34504 5.96058 5.33609 7.11858 5.35399 8.26761C5.35399 8.41123 5.43457 8.58179 5.53306 8.69849C5.77479 8.97677 5.90909 9.28198 5.90909 9.64105C5.90909 10.0989 5.90909 10.5567 5.90909 11.0594C6.61639 11.0594 9.31129 11.0594 9.99174 11.0594C10.126 11.0594 10.2603 11.0504 10.3946 11.0773C10.6543 11.1402 10.7975 11.3197 10.7886 11.589C10.7707 11.8583 10.6185 12.0199 10.3499 12.0558C10.2424 12.0648 10.126 12.0648 10.0186 12.0648C7.9146 12.0648 3.78719 12.0648 1.6832 12.0648C1.07438 12.0648 0.761019 12.5854 1.08333 13.1151C1.16391 13.2497 1.4146 13.3305 1.58471 13.3395C3.07989 13.3574 4.58402 13.3485 6.0792 13.3485C6.71488 13.3485 9.37397 13.3485 10.0096 13.3485C10.0992 13.3485 10.1887 13.3395 10.2782 13.3574C10.5916 13.3933 10.7796 13.5998 10.7617 13.8871C10.7438 14.1653 10.5647 14.3449 10.2514 14.3539C9.65152 14.3628 7.01928 14.3628 6.41942 14.3628C5.06749 14.3628 3.71556 14.3628 2.35468 14.3628C2.22934 14.3628 2.11295 14.3628 2.00551 14.3628C1.97865 14.4077 1.95179 14.4257 1.95179 14.4436C1.87121 16.6429 1.88017 18.8422 2.85606 20.8889C4.89738 25.1529 8.28168 27.4151 13.009 27.5138C15.9098 27.5766 18.8017 27.5587 21.7025 27.5138C27.2534 27.433 31.918 23.1062 32.4194 17.5765C32.5179 16.5262 32.4373 15.458 32.4373 14.3628C31.8106 14.3628 28.3547 14.3628 27.7101 14.3628C27.5758 14.3628 27.4415 14.3718 27.3072 14.3449C27.0654 14.3 26.9311 14.1474 26.9132 13.914C26.8953 13.6716 26.9848 13.4921 27.2176 13.4113C27.343 13.3664 27.4773 13.3574 27.6116 13.3574C28.4084 13.3574 32.0076 13.3574 32.8044 13.3574C33.261 13.3574 33.3595 13.2407 33.3685 12.738C33.3685 12.2174 33.261 12.0827 32.7955 12.0827C28.8382 12.0827 23.0634 12.0827 19.0971 12.0827C18.9628 12.0827 18.8285 12.0917 18.6942 12.0738C18.4346 12.0378 18.2913 11.8673 18.2734 11.6249C18.2555 11.3736 18.3809 11.1851 18.6226 11.1222C18.7569 11.0863 18.9091 11.0863 19.0523 11.0863C22.9649 11.0863 28.6949 11.0953 32.6164 11.0773C33.4848 11.0684 34.0847 11.3736 34.3712 12.2084C34.3802 12.5675 34.3802 12.9265 34.3802 13.2856ZM2.6949 27.5318C3.43802 27.5318 4.14532 27.5318 4.89738 27.5318C4.89738 26.8495 4.90634 26.1763 4.88843 25.512C4.88843 25.4312 4.78995 25.3504 4.72727 25.2696C4.1095 24.5245 3.48278 23.7795 2.86501 23.0344C2.82025 22.9805 2.77548 22.9267 2.70386 22.8459C2.6949 24.4258 2.6949 25.9608 2.6949 27.5318ZM4.89738 11.0773C4.89738 10.5926 4.89738 10.1348 4.89738 9.67696C4.89738 9.47049 4.78099 9.38073 4.57507 9.38073C4.04683 9.38073 3.52755 9.37175 3.00826 9.3897C2.90083 9.39868 2.71281 9.53333 2.71281 9.61412C2.68595 10.0989 2.6949 10.5836 2.6949 11.0773C3.43802 11.0773 4.14532 11.0773 4.89738 11.0773ZM8.02204 27.5318C7.29683 27.1098 6.61639 26.7149 5.927 26.3109C5.927 26.7238 5.927 27.1188 5.927 27.5318C6.61639 27.5318 7.29683 27.5318 8.02204 27.5318Z" fill="#C6343F"/>
<path d="M10.7885 20.4401C13.2238 20.4401 15.6322 20.4401 18.0854 20.4401C18.0854 19.8567 18.0854 16.4096 18.0854 15.844C18.0854 15.7094 18.0854 15.5747 18.1301 15.4491C18.2018 15.2067 18.4077 15.0541 18.6405 15.1259C18.8106 15.1798 18.9538 15.3593 19.0702 15.5209C19.1239 15.5927 19.0971 15.7363 19.0971 15.853C19.0971 17.8997 19.0971 22.828 19.0971 24.8747C19.0971 25.5838 18.8643 25.8262 18.157 25.8262C15.677 25.8262 13.188 25.8262 10.708 25.8262C10.0096 25.8262 9.76788 25.5749 9.76788 24.8657C9.76788 20.6197 9.76788 16.3737 9.76788 12.1366C9.76788 11.0774 10.323 10.5208 11.3795 10.5208C13.4297 10.5208 15.4711 10.5208 17.5213 10.5208C18.5509 10.5208 19.106 11.0684 19.106 12.0917C19.106 13.4472 19.106 14.8027 19.106 16.1582C19.106 16.257 19.1329 16.3916 19.0792 16.4545C18.9538 16.6071 18.7927 16.8135 18.6405 16.8315C18.4793 16.8405 18.2734 16.6699 18.1481 16.5263C18.0675 16.4365 18.0943 16.248 18.0943 16.1044C18.0943 14.7848 18.0943 13.4652 18.0943 12.1366C18.0943 11.6339 17.9958 11.5352 17.5124 11.5352C15.4531 11.5352 13.3939 11.5352 11.3347 11.5352C10.9139 11.5352 10.7706 11.6609 10.7706 12.0648C10.7706 14.8117 10.7706 17.5496 10.7706 20.2965C10.7617 20.3145 10.7706 20.3594 10.7885 20.4401ZM10.7796 24.7939C13.2238 24.7939 15.6322 24.7939 18.0585 24.7939C18.0585 24.3271 18.0585 23.8693 18.0585 23.4204C15.6233 23.4204 13.2149 23.4204 10.7796 23.4204C10.7796 23.8783 10.7796 24.3181 10.7796 24.7939ZM18.0675 21.4994C15.6322 21.4994 13.2149 21.4994 10.7796 21.4994C10.7796 21.7956 10.7796 22.0739 10.7796 22.3612C13.2149 22.3612 15.6322 22.3612 18.0675 22.3612C18.0675 22.056 18.0675 21.7867 18.0675 21.4994Z" fill="#C6343F"/>
<path d="M24.3437 14.3718C23.144 14.3718 20.1357 14.3718 18.9449 14.3718C18.5241 14.3718 18.2913 14.1923 18.3003 13.8691C18.3093 13.5549 18.542 13.3664 18.9628 13.3664C21.3444 13.3664 25.5345 13.3664 27.916 13.3664C28.3278 13.3664 28.5517 13.528 28.5785 13.8332C28.6054 14.1564 28.3816 14.3718 28.0055 14.3718C26.7789 14.3808 25.5613 14.3718 24.3437 14.3718Z" fill="#C6343F"/>
</svg>
