<svg width="35" height="29" viewBox="0 0 35 29" fill="none" xmlns="http://www.w3.org/2000/svg">
<path d="M34.3125 27.6423C34.026 28.3605 33.4888 28.6208 32.7457 28.567C32.4771 28.549 32.2085 28.5759 31.9399 28.558C31.2416 28.5041 30.7939 28.0373 30.776 27.3282C30.7671 27.014 30.785 26.6998 30.7671 26.3856C30.7492 25.838 30.3821 25.47 29.8359 25.4341C29.7554 25.4251 29.6837 25.4341 29.6031 25.4341C21.3036 25.4341 13.004 25.4341 4.70439 25.443C4.41789 25.443 4.09557 25.5328 3.87174 25.6944C3.69268 25.8201 3.5942 26.1163 3.54943 26.3497C3.49571 26.6549 3.54048 26.9781 3.53153 27.2923C3.51362 28.0373 3.06596 28.5131 2.3318 28.558C1.95577 28.5759 1.57079 28.5759 1.19475 28.558C0.460595 28.5221 0.00397919 28.0373 0.00397919 27.2923C0.00397919 23.8093 -0.00497398 20.3263 0.00397919 16.8433C0.0129324 15.4698 0.568029 14.3298 1.61555 13.4411C1.80357 13.2885 1.85728 13.1359 1.85728 12.9025C1.84833 10.5595 1.84833 8.22559 1.85728 5.88265C1.85728 4.49125 2.62726 3.72822 4.015 3.72822C4.95509 3.72822 5.89516 3.71925 6.82629 3.72822C8.30356 3.74618 9.60178 3.27938 10.7388 2.32785C12.234 1.08007 13.953 0.317048 15.878 0.0836519C18.6892 -0.257466 21.223 0.442723 23.4255 2.22012C24.6789 3.24348 26.0577 3.77311 27.6782 3.72822C28.5825 3.70129 29.4868 3.71925 30.391 3.72822C31.6624 3.72822 32.4592 4.51818 32.4592 5.80186C32.4682 8.16275 32.4682 10.5236 32.4592 12.8935C32.4592 13.1449 32.5308 13.2975 32.7189 13.459C33.5515 14.1592 34.0618 15.0569 34.2498 16.1341C34.2588 16.2059 34.2946 16.2867 34.3125 16.3585C34.3125 20.1198 34.3125 23.8811 34.3125 27.6423ZM1.06046 21.0983C1.0336 21.1521 1.01569 21.1701 1.01569 21.188C1.01569 23.2168 1.01568 25.2456 1.00673 27.2653C1.00673 27.4718 1.11417 27.5436 1.30219 27.5436C1.57974 27.5436 1.85729 27.5346 2.14379 27.5526C2.45715 27.5705 2.55563 27.4269 2.54668 27.1307C2.53773 26.7357 2.51982 26.3407 2.59145 25.9637C2.77946 25.0032 3.58525 24.4197 4.65963 24.4197C12.995 24.4197 21.3215 24.4197 29.6569 24.4197C29.7195 24.4197 29.7912 24.4197 29.8538 24.4197C30.9372 24.4556 31.7519 25.2635 31.7877 26.3407C31.7967 26.619 31.7967 26.8973 31.7877 27.1845C31.7788 27.4449 31.8773 27.5616 32.1369 27.5526C32.3786 27.5436 32.6293 27.5526 32.8711 27.5526C33.2829 27.5526 33.3098 27.5257 33.3098 27.1217C33.3098 25.2276 33.3098 23.3335 33.3098 21.4484C33.3098 21.3407 33.3098 21.2329 33.3098 21.1073C33.1038 21.1073 32.9516 21.1073 32.7905 21.1073C23.6135 21.1073 11.0164 21.1073 1.83938 21.1073C1.69613 21.1073 1.54392 21.1162 1.40962 21.0893C1.14103 21.0354 0.997776 20.8649 1.00673 20.5866C1.01568 20.3173 1.16789 20.1467 1.43649 20.1108C1.57974 20.0929 1.72299 20.1019 1.87519 20.1019C11.0522 20.1019 23.6493 20.1019 32.8263 20.1019C32.9785 20.1019 33.1307 20.1019 33.2919 20.1019C33.2919 18.8631 33.2919 17.6692 33.2919 16.4752C33.2919 16.3406 33.256 16.2059 33.2202 16.0803C32.8263 14.4555 31.4565 13.4052 29.7374 13.4052C23.6582 13.4052 17.588 13.4052 11.5088 13.4052C9.15412 13.4052 6.79943 13.3962 4.4358 13.4142C2.7526 13.4231 1.27532 14.653 1.09626 16.3137C0.961964 17.5435 1.04255 18.7912 1.03359 20.039C1.03359 20.057 1.06045 20.0749 1.08731 20.1108C1.54392 20.1108 2.0274 20.1019 2.50192 20.1108C2.87795 20.1198 3.08387 20.3532 3.03911 20.6853C2.99434 20.9995 2.7705 21.1073 2.484 21.1162C2.00053 21.1073 1.52602 21.0983 1.06046 21.0983ZM31.4206 12.6781C31.4386 12.5883 31.4565 12.5524 31.4565 12.5255C31.4565 10.2454 31.4654 7.95628 31.4565 5.67618C31.4565 5.08371 31.0715 4.73362 30.4627 4.73362C29.5494 4.72464 28.6273 4.71567 27.714 4.73362C25.8518 4.78748 24.2402 4.20399 22.8167 3.01008C21.4021 1.82515 19.7368 1.17882 17.8924 1.03519C15.4034 0.846678 13.2099 1.58277 11.285 3.18064C10.0315 4.22194 8.59006 4.72464 6.96059 4.73362C5.97574 4.73362 4.9909 4.73362 4.015 4.73362C3.19131 4.73362 2.86899 5.05679 2.86899 5.89162C2.86899 8.0281 2.86899 10.1735 2.86899 12.31C2.86899 12.4177 2.86899 12.5255 2.86899 12.696C3.97023 12.2472 5.08938 12.4447 6.20853 12.3729C6.20853 12.2292 6.20853 12.1036 6.20853 11.9869C6.20853 10.8737 6.20853 9.76959 6.20853 8.65647C6.20853 7.678 6.74571 7.13042 7.71265 7.13042C9.65549 7.12144 11.5983 7.12144 13.5412 7.13042C14.4723 7.13042 15.0184 7.68698 15.0184 8.61159C15.0184 9.74266 15.0184 10.8737 15.0184 12.0048C15.0184 12.1215 15.0184 12.2382 15.0184 12.3639C16.4689 12.3639 17.8656 12.3639 19.2981 12.3639C19.2981 12.0676 19.2981 9.12326 19.2981 8.84498C19.307 8.48591 19.504 8.25252 19.7994 8.25252C20.0949 8.25252 20.2919 8.48591 20.3008 8.84498C20.3098 9.12326 20.3008 12.0676 20.3008 12.3549C22.5839 12.3549 24.8311 12.3549 27.1052 12.3549C27.1052 11.0533 27.1052 9.77857 27.1052 8.50387C27.1052 8.24354 26.9441 8.12684 26.6934 8.12684C24.7058 8.12684 22.7182 8.12684 20.7306 8.12684C20.4441 8.12684 20.3008 8.27945 20.3098 8.5667C20.3098 8.74624 20.3187 8.92577 20.3008 9.10531C20.2739 9.39257 20.0501 9.58108 19.7815 9.56313C19.495 9.54517 19.3339 9.37461 19.307 9.09633C19.2891 8.9527 19.2981 8.80908 19.2981 8.65647C19.2981 7.66005 19.8352 7.12144 20.829 7.12144C22.7361 7.12144 24.652 7.12144 26.5591 7.12144C27.5976 7.12144 28.1169 7.65107 28.1169 8.70135C28.1169 9.79652 28.1169 10.9007 28.1169 11.9958C28.1169 12.1125 28.1259 12.2382 28.1348 12.3729C29.245 12.4357 30.3552 12.2472 31.4206 12.6781ZM14.0157 12.3818C14.0157 12.2562 14.0157 12.1574 14.0157 12.0587C14.0157 10.9366 14.0157 9.82345 14.0157 8.70135C14.0157 8.22559 13.9262 8.13582 13.4427 8.13582C11.5536 8.13582 9.6734 8.13582 7.78428 8.13582C7.29186 8.13582 7.21128 8.21661 7.21128 8.69238C7.21128 9.81448 7.21128 10.9276 7.21128 12.0497C7.21128 12.1574 7.22023 12.2651 7.22918 12.3729C9.49433 12.3818 11.7237 12.3818 14.0157 12.3818Z" fill="#C6343F"/>
</svg>
