<svg width="31" height="27" viewBox="0 0 31 27" fill="none" xmlns="http://www.w3.org/2000/svg">
<g clip-path="url(#clip0_41_3168)">
<path d="M31 22.1182C31 22.4514 31 22.7846 31 23.1179C30.9839 23.1679 30.9596 23.2095 30.9516 23.2595C30.6448 25.1423 29.3289 26.5668 27.5609 26.9167C25.7849 27.2666 24.0089 26.4169 23.0724 24.759C22.588 23.9093 22.1117 23.0512 21.6354 22.1932C21.4578 21.8766 21.3367 21.4601 21.0703 21.2934C20.812 21.1352 20.4083 21.2518 20.0612 21.2435C19.3992 21.2435 18.7372 21.2435 18.0672 21.2435C18.0672 22.4681 18.0672 23.6594 18.0672 24.8673C18.8503 24.8673 19.6172 24.8673 20.3841 24.8673C20.7958 24.8673 21.0703 25.1173 21.0703 25.4838C21.0703 25.8504 20.7958 26.1086 20.3841 26.1086C19.8836 26.117 19.375 26.1086 18.8745 26.1086C16.1378 26.1086 13.4091 26.1086 10.6724 26.1086C10.2122 26.1086 9.92969 25.8587 9.93776 25.4755C9.94583 25.1006 10.2203 24.8673 10.6643 24.859C11.1003 24.859 11.5281 24.859 11.9641 24.859C12.2951 24.859 12.618 24.859 12.949 24.859C12.949 23.6344 12.949 22.4514 12.949 21.2351C12.8198 21.2351 12.6987 21.2351 12.5776 21.2351C9.42109 21.2351 6.26458 21.2435 3.10807 21.2351C1.55 21.2435 0.371354 20.2438 0.0484375 18.6692C0.0403646 18.6276 0.0161458 18.5943 0 18.5609C0 13.2709 0 7.98088 0 2.69084C0.0161458 2.67418 0.0322917 2.65752 0.0403646 2.64086C0.468229 0.858076 1.53385 7.49575e-06 3.3099 7.49575e-06C9.11432 7.49575e-06 14.9268 7.49575e-06 20.7312 7.49575e-06C23.1289 7.49575e-06 25.5346 -0.00832327 27.9323 0.00833826C29.232 0.016669 30.1766 0.658138 30.7336 1.87443C30.8547 2.13268 30.9112 2.41593 31 2.69084C31 7.98088 31 13.2709 31 18.5609C30.7901 19.1024 30.5802 19.6439 30.3784 20.1605C30.5802 20.7936 30.7901 21.4601 31 22.1182ZM27.1089 3.87381C26.9716 3.87381 26.8505 3.87381 26.7294 3.87381C23.9766 3.87381 21.2237 3.87381 18.4628 3.87381C18.3659 3.87381 18.2609 3.88214 18.1641 3.86548C17.8411 3.82383 17.607 3.55724 17.6151 3.23234C17.6232 2.92411 17.8573 2.66585 18.1641 2.63253C18.2529 2.6242 18.3417 2.6242 18.4385 2.6242C21.4578 2.6242 24.469 2.6242 27.4883 2.6242C28.1503 2.6242 28.3279 2.80748 28.3279 3.49893C28.3279 7.78927 28.3279 12.0796 28.3279 16.37C28.3279 16.4949 28.3117 16.6365 28.3602 16.7365C28.7477 17.4613 29.1594 18.1694 29.5549 18.8858C29.5872 18.8858 29.6276 18.8858 29.6599 18.8775C29.7003 18.5693 29.7729 18.2527 29.7729 17.9445C29.7891 13.071 29.7891 8.18915 29.7891 3.29899C29.7891 2.01605 29.0383 1.24962 27.787 1.24962C19.593 1.24962 11.399 1.24962 3.20495 1.24962C1.95365 1.24962 1.21094 2.02438 1.21094 3.31565C1.21094 8.18915 1.21094 13.0626 1.21094 17.9361C1.21094 19.2274 1.95365 20.0022 3.19687 20.0022C8.81562 20.0022 14.4344 20.0022 20.0612 20.0022C20.1581 20.0022 20.2549 19.9938 20.3841 19.9855C20.1661 19.6023 19.9643 19.2607 19.7867 18.8942C19.6818 18.6692 19.5365 18.6193 19.3104 18.6193C14.0227 18.6276 8.7349 18.6276 3.44714 18.6276C2.86589 18.6276 2.66406 18.4193 2.66406 17.8195C2.66406 13.0293 2.66406 8.23913 2.66406 3.44894C2.66406 2.83247 2.86589 2.63253 3.46328 2.63253C6.4987 2.63253 16.7997 2.63253 19.8432 2.63253C19.932 2.63253 20.0289 2.6242 20.1177 2.64086C20.4164 2.68251 20.6344 2.93244 20.6424 3.23234C20.6505 3.54058 20.4326 3.82383 20.1339 3.87381C20.0289 3.89047 19.9159 3.88214 19.8029 3.88214C17.0419 3.88214 7.00729 3.88214 4.24635 3.88214C4.13333 3.88214 4.01224 3.88214 3.89922 3.88214C3.89922 8.39742 3.89922 12.871 3.89922 17.3613C8.90443 17.3613 13.8935 17.3613 18.8906 17.3613C18.8826 17.3197 18.8826 17.2863 18.8745 17.2613C18.4708 16.395 18.6242 15.8784 19.4396 15.3953C21.0945 14.4039 22.7576 13.4209 24.4125 12.4295C25.1875 11.9713 25.793 12.1379 26.237 12.9294C26.5195 13.4292 26.8021 13.929 27.1169 14.4955C27.1089 10.9133 27.1089 7.42272 27.1089 3.87381ZM19.8755 16.5699C20.4083 17.5196 20.9169 18.436 21.4336 19.3524C22.3539 20.9935 23.25 22.643 24.1945 24.2592C24.9534 25.5588 26.4872 26.067 27.8354 25.5421C29.5792 24.8507 30.3299 22.7097 29.3289 20.9602C27.9484 18.5526 26.6164 16.12 25.2602 13.6958C25.2198 13.6125 25.1633 13.5375 25.1148 13.4542C23.363 14.4955 21.6273 15.5286 19.8755 16.5699ZM16.824 21.2601C15.9279 21.2601 15.0641 21.2601 14.1922 21.2601C14.1922 22.4681 14.1922 23.651 14.1922 24.8507C15.0802 24.8507 15.9521 24.8507 16.824 24.8507C16.824 23.651 16.824 22.4681 16.824 21.2601Z" fill="#C6343F"/>
<path d="M15.9116 11.7047C15.9359 11.6214 15.9682 11.4631 16.0085 11.3215C16.9288 8.41406 19.8593 6.70625 22.7494 7.38938C22.8221 7.40604 22.8866 7.4227 22.9512 7.44769C23.2822 7.56432 23.4518 7.86423 23.3791 8.19746C23.3064 8.52236 23.0077 8.7223 22.6606 8.63899C21.926 8.46404 21.1833 8.41406 20.4486 8.614C18.7856 9.05553 17.6796 10.1219 17.1387 11.8047C17.1064 11.8963 17.0903 11.988 17.0499 12.0713C16.9208 12.3378 16.6382 12.4711 16.3637 12.3962C16.0812 12.3129 15.9036 12.0796 15.9116 11.7047Z" fill="#C6343F"/>
<path d="M21.466 10.0969C21.7243 10.1468 21.9827 10.1718 22.2329 10.2385C22.5639 10.3301 22.7254 10.63 22.6527 10.9549C22.5881 11.2715 22.3379 11.4548 22.0069 11.4381C21.7485 11.4215 21.4821 11.3548 21.2319 11.3965C20.5538 11.4964 20.0775 11.8963 19.8353 12.5711C19.8191 12.6211 19.803 12.6711 19.7868 12.7211C19.6496 13.0709 19.3347 13.2376 19.0118 13.1209C18.7051 13.0126 18.5517 12.6961 18.6405 12.3378C18.9472 11.0716 20.1501 10.1302 21.466 10.0969Z" fill="#C6343F"/>
<path d="M28.5782 22.6263C28.5782 23.651 27.7628 24.4924 26.7698 24.4924C25.7688 24.4924 24.9373 23.6427 24.9454 22.6097C24.9534 21.585 25.7607 20.7436 26.7537 20.7436C27.7709 20.7436 28.5782 21.585 28.5782 22.6263ZM27.3672 22.6014C27.3592 22.2515 27.0766 21.9765 26.7376 21.9932C26.4146 22.0099 26.1563 22.2931 26.1644 22.6263C26.1725 22.9596 26.4469 23.2345 26.7698 23.2345C27.0928 23.2428 27.3753 22.9512 27.3672 22.6014Z" fill="#C6343F"/>
<path d="M22.9997 17.3113C22.9997 17.6445 22.7171 17.9278 22.3942 17.9278C22.0552 17.9278 21.7807 17.6362 21.7968 17.278C21.8049 16.9364 22.0794 16.6698 22.4104 16.6782C22.7333 16.6948 22.9997 16.9781 22.9997 17.3113Z" fill="#C6343F"/>
<path d="M24.4772 15.4369C24.8082 15.4286 25.0746 15.6868 25.0907 16.0367C25.0988 16.3949 24.8324 16.6865 24.4933 16.6865C24.1704 16.6865 23.8959 16.4116 23.8959 16.07C23.8879 15.7201 24.1462 15.4452 24.4772 15.4369Z" fill="#C6343F"/>
<path d="M24.2106 19.469C24.2106 19.8022 23.9361 20.0855 23.6132 20.0855C23.2742 20.0855 22.9997 19.8022 23.0077 19.4524C23.0158 19.1108 23.2822 18.8525 23.6132 18.8525C23.9442 18.8609 24.2106 19.1358 24.2106 19.469Z" fill="#C6343F"/>
<path d="M25.7123 17.6029C26.0433 17.6112 26.3017 17.8778 26.3017 18.2194C26.3017 18.561 26.0433 18.8359 25.7123 18.8359C25.3733 18.8359 25.0988 18.5526 25.1069 18.2027C25.1149 17.8612 25.3733 17.5946 25.7123 17.6029Z" fill="#C6343F"/>
</g>
<defs>
<clipPath id="clip0_41_3168">
<rect width="31" height="27" fill="white"/>
</clipPath>
</defs>
</svg>
