<svg width="28" height="28" viewBox="0 0 28 28" fill="none" xmlns="http://www.w3.org/2000/svg">
<path d="M17.6825 13.4293V12.2264C17.6825 12.002 17.8616 11.8224 18.0854 11.8224H19.4284C19.6343 11.8224 19.7955 11.984 19.7955 12.1905V12.8817H18.7569V13.4023H21.9442V12.8996H20.9146V12.1905C20.9146 11.984 21.0758 11.8224 21.2817 11.8224H22.6157C22.8395 11.8224 23.0186 12.002 23.0186 12.2264V13.4113H27.2982C27.6026 13.4113 27.8444 13.6537 27.8444 13.9589V13.9679C27.8444 14.2551 27.6205 14.4885 27.334 14.5065H27.3251V27.9178H0.528234V14.5154C0.232779 14.5154 0 14.2731 0 13.9768C0 13.6806 0.241736 13.4382 0.53719 13.4382H17.6825V13.4293ZM1.60261 26.8406C9.83058 26.8406 18.0317 26.8406 26.2238 26.8406C26.2238 22.7112 26.2238 18.6089 26.2238 14.5154C18.0048 14.5154 9.81267 14.5154 1.60261 14.5154C1.60261 18.6268 1.60261 22.7202 1.60261 26.8406Z" fill="#C6343F"/>
<path d="M9.08746 4.85643V2.69303H4.28855C4.2796 2.78279 4.27065 2.88154 4.27065 2.97131C4.27065 4.41657 4.27065 5.86183 4.26169 7.30709C4.26169 7.51355 4.31541 7.62127 4.50343 7.72002C5.15701 8.07011 5.47038 8.80621 5.28236 9.51537C5.09434 10.2335 4.46762 10.7272 3.74241 10.7362C3.00825 10.7362 2.37257 10.2515 2.18456 9.55128C1.98759 8.84212 2.28304 8.08807 2.92767 7.73797C3.14255 7.62127 3.19626 7.4956 3.19626 7.27118C3.18731 5.85285 3.18731 4.42554 3.18731 3.00721C3.18731 2.90847 3.18731 2.80972 3.18731 2.67507H2.13084C1.83538 2.67507 1.6026 2.4327 1.6026 2.14544C1.6026 1.84921 1.84434 1.61581 2.13084 1.61581H3.17836V1.09516C3.17836 0.798927 3.4201 0.556554 3.71555 0.556554C4.01101 0.556554 4.25274 0.798927 4.25274 1.09516V1.57991H9.06955V1.08618C9.06955 0.78995 9.31129 0.547577 9.60674 0.547577C9.9022 0.547577 10.1439 0.78995 10.1439 1.08618V1.57991H12.2748C12.5702 1.57991 12.812 1.82228 12.812 2.11851C12.812 2.41475 12.5702 2.65712 12.2748 2.65712H10.1797V4.84745C12.1494 5.4848 13.0806 6.84927 12.7762 8.63565C12.5076 10.1886 11.1019 11.3197 9.4993 11.2748C7.91459 11.2299 6.58056 9.97319 6.41941 8.35737C6.27616 6.83132 7.2431 5.24243 9.08746 4.85643ZM9.61569 5.89773C8.43387 5.89773 7.47588 6.8762 7.48484 8.06114C7.49379 9.23709 8.45178 10.1886 9.62465 10.1886C10.8065 10.1886 11.7824 9.21914 11.7734 8.03421C11.7734 6.85825 10.8065 5.89773 9.61569 5.89773ZM4.27065 9.1204C4.27065 8.83314 4.02891 8.59077 3.74241 8.59077C3.438 8.59077 3.19627 8.84212 3.20522 9.14733C3.21417 9.43458 3.46486 9.66798 3.75136 9.659C4.02891 9.65003 4.27065 9.40765 4.27065 9.1204Z" fill="#C6343F"/>
<path d="M16.1784 5.3322C15.8203 5.3322 15.5248 5.03597 15.5248 4.6769C15.5248 4.30885 15.5248 3.94978 15.5338 3.59969C15.5338 3.50094 15.6412 3.36629 15.7397 3.31243C16.2948 3.0162 16.8499 2.73792 17.414 2.46861C17.6199 2.36987 17.6825 2.25317 17.6736 2.02875C17.6646 1.57991 17.6646 1.1221 17.6646 0.664281C17.6646 0.296234 17.9601 0 18.3272 0H22.3561C22.7232 0 23.0186 0.296234 23.0186 0.664281C23.0186 1.1221 23.0186 1.57991 23.0097 2.03773C23.0007 2.26215 23.0813 2.36987 23.2783 2.46861C23.8423 2.73792 24.3974 3.0162 24.9525 3.31243C25.042 3.35731 25.1495 3.48299 25.1495 3.57276C25.1584 3.9408 25.1584 4.30885 25.1584 4.68588C25.1584 5.04495 24.8629 5.34118 24.5048 5.34118H16.1784V5.3322ZM21.2907 1.08619H19.4195C19.0434 1.08619 18.748 1.3914 18.739 1.75945C18.739 2.08261 18.739 2.3968 18.748 2.71996C18.7569 2.95336 18.6763 3.0521 18.4794 3.15085C17.9153 3.42015 17.3602 3.69843 16.8051 3.98569C16.7156 4.03057 16.6529 4.12932 16.5186 4.26397H24.1109C24.1288 4.22806 24.1288 4.21908 24.1377 4.18318C24.0482 4.11136 23.9766 4.01262 23.8781 3.96773C23.3409 3.68945 22.8127 3.41117 22.2576 3.15982C22.0069 3.0521 21.9442 2.90847 21.9532 2.64815C21.9621 2.35191 21.9621 2.05568 21.9621 1.75945C21.9621 1.38242 21.6577 1.08619 21.2907 1.08619Z" fill="#C6343F"/>
<path d="M2.677 25.7634C2.677 22.5407 2.677 19.345 2.677 16.1313C6.41943 16.1313 10.1439 16.1313 13.8953 16.1313C13.8953 19.327 13.8953 22.5317 13.8953 25.7634C10.1708 25.7634 6.43733 25.7634 2.677 25.7634ZM12.8299 17.2085C9.78582 17.2085 6.7686 17.2085 3.76034 17.2085C3.76034 18.2857 3.76034 19.345 3.76034 20.3953C6.79546 20.3953 9.80373 20.3953 12.8299 20.3953C12.8299 19.327 12.8299 18.2767 12.8299 17.2085ZM12.8209 24.6951C12.8209 23.6 12.8209 22.5497 12.8209 21.4994C9.78582 21.4994 6.77756 21.4994 3.76034 21.4994C3.76034 22.5766 3.76034 23.6269 3.76034 24.6951C6.78651 24.6951 9.79477 24.6951 12.8209 24.6951Z" fill="#C6343F"/>
<path d="M25.1584 18.2857C25.1584 20.6197 25.1584 22.9177 25.1584 25.2337C21.9532 25.2337 18.7658 25.2337 15.5516 25.2337C15.5516 22.9267 15.5516 20.6197 15.5516 18.2857C18.7479 18.2857 21.9442 18.2857 25.1584 18.2857ZM16.6171 24.1475C19.124 24.1475 21.604 24.1475 24.084 24.1475C24.084 22.5317 24.084 20.9339 24.084 19.3539C21.5861 19.3539 19.106 19.3539 16.6171 19.3539C16.6171 20.9518 16.6171 22.5407 16.6171 24.1475Z" fill="#C6343F"/>
<path d="M19.8223 16.3647C19.8313 15.9248 20.2073 15.5657 20.646 15.5747C21.0758 15.5837 21.4249 15.9517 21.4249 16.3737C21.4249 16.8135 21.0578 17.1816 20.6191 17.1816C20.1804 17.1816 19.8134 16.8045 19.8223 16.3647Z" fill="#C6343F"/>
<path d="M23.3141 15.5747C23.7528 15.5837 24.1109 15.9607 24.1019 16.4006C24.093 16.8404 23.708 17.1995 23.2693 17.1816C22.8395 17.1636 22.4993 16.7956 22.4993 16.3736C22.4993 15.9338 22.8754 15.5657 23.3141 15.5747Z" fill="#C6343F"/>
<path d="M9.07852 18.2857C9.07852 18.6268 9.07852 18.959 9.07852 19.3091C8.37122 19.3091 7.68183 19.3091 6.96558 19.3091C6.96558 18.9679 6.96558 18.6358 6.96558 18.2857C7.65497 18.2857 8.35331 18.2857 9.07852 18.2857Z" fill="#C6343F"/>
<path d="M6.96558 23.6089C6.96558 23.2588 6.96558 22.9267 6.96558 22.5766C7.66392 22.5766 8.35332 22.5766 9.06957 22.5766C9.06957 22.9087 9.06957 23.2499 9.06957 23.6089C8.38017 23.6089 7.69078 23.6089 6.96558 23.6089Z" fill="#C6343F"/>
<path d="M21.407 19.8925C21.407 20.2337 21.407 20.5658 21.407 20.9249C20.7087 20.9249 20.0193 20.9249 19.303 20.9249C19.303 20.5927 19.303 20.2516 19.303 19.8925C20.0014 19.8925 20.6997 19.8925 21.407 19.8925Z" fill="#C6343F"/>
</svg>
