<svg width="23" height="17" viewBox="0 0 23 17" fill="none" xmlns="http://www.w3.org/2000/svg">
<path d="M15.2281 15.8873C15.2281 16.0013 15.2119 16.0989 15.1794 16.1803C15.0981 16.3919 14.9193 16.4896 14.6268 16.4896C13.9442 16.4896 13.2453 16.4896 12.5627 16.4896H11.5063C11.49 16.4896 11.4738 16.4896 11.4575 16.4896H1.46208C1.03951 16.4896 0.860732 16.2943 0.860732 15.8873V5.796H3.67245H15.2119V9.01872C15.3582 8.90479 15.5207 8.80713 15.6832 8.72575C15.6832 8.56298 15.6832 8.38394 15.6832 8.2049C15.6832 6.70748 15.6832 5.19378 15.6995 3.69635C15.6995 2.96392 15.1794 2.50818 14.578 2.55701C14.5293 2.55701 14.4805 2.55701 14.4318 2.55701C14.4318 2.24776 14.4318 1.95478 14.4318 1.66181C14.4155 1.14096 14.0254 0.766607 13.5379 0.782884C13.1315 0.79916 12.7902 1.10841 12.7415 1.49904C12.709 1.67808 12.7252 1.8734 12.7252 2.06872C12.7252 2.2152 12.7252 2.37797 12.7252 2.54073H11.6688C11.6688 2.39424 11.6688 2.26403 11.6688 2.11755C11.6688 1.90595 11.685 1.67808 11.6525 1.46649C11.5713 1.02703 11.1812 0.734055 10.7424 0.766607C10.3198 0.79916 9.97851 1.15724 9.96226 1.5967C9.96226 1.90595 9.96226 2.19893 9.96226 2.52445H8.90583C8.90583 2.2152 8.90583 1.90595 8.90583 1.5967C8.88958 1.2549 8.72705 0.994476 8.41825 0.847989C8.10945 0.701502 7.80064 0.750331 7.52435 0.961924C7.31306 1.12469 7.19929 1.33628 7.19929 1.5967C7.19929 1.90595 7.19929 2.19893 7.19929 2.52445H6.14287C6.14287 2.28031 6.14287 2.01989 6.14287 1.75947C6.14287 1.64553 6.14287 1.5316 6.11036 1.41766C6.01285 0.994476 5.60653 0.734055 5.18396 0.782884C4.76139 0.831713 4.43633 1.18979 4.42008 1.61298C4.42008 1.92223 4.42008 2.2152 4.42008 2.54073H3.36365C3.36365 2.28031 3.36365 2.01989 3.36365 1.75947C3.36365 1.62925 3.36365 1.49904 3.33115 1.38511C3.21738 0.9782 2.82731 0.717778 2.42099 0.766607C1.99842 0.815436 1.67337 1.17352 1.65712 1.61298C1.65712 1.90595 1.65712 2.2152 1.65712 2.52445H1.41333C0.811976 2.52445 0.389404 2.94764 0.389404 3.54986C0.389404 6.04015 0.389404 8.53043 0.389404 11.037C0.389404 12.5995 0.405657 14.1621 0.389404 15.7409C0.389404 16.2943 0.584435 16.75 1.21829 16.929H14.8868C15.0494 16.8477 15.2444 16.7825 15.3744 16.6686C15.4719 16.5872 15.5532 16.4896 15.6019 16.3919C15.667 16.2454 15.6995 16.0989 15.6995 15.9199C15.5369 15.8385 15.3744 15.7409 15.2281 15.6269V15.8873ZM13.1965 2.52445C13.1965 2.23148 13.1965 1.93851 13.1965 1.64553C13.1965 1.48277 13.2941 1.36883 13.4403 1.30373C13.5866 1.2549 13.7166 1.27117 13.8141 1.38511C13.8792 1.46649 13.9442 1.58043 13.9442 1.67808C13.9604 2.24776 13.9604 2.81743 13.9442 3.3871C13.9442 3.63125 13.7816 3.77773 13.5541 3.77773C13.3428 3.77773 13.1803 3.61497 13.1803 3.37082C13.1803 3.09413 13.1965 2.80115 13.1965 2.52445ZM10.4336 2.52445C10.4336 2.24776 10.4336 1.97106 10.4336 1.69436C10.4336 1.45021 10.5799 1.28745 10.7911 1.28745C11.0024 1.28745 11.1812 1.45021 11.1812 1.69436C11.1812 2.26403 11.1812 2.81743 11.1812 3.37082C11.1812 3.61497 11.0187 3.77773 10.7911 3.77773C10.5636 3.77773 10.4173 3.61497 10.4173 3.35455C10.4173 3.07785 10.4336 2.80115 10.4336 2.52445ZM7.65437 1.71064C7.65437 1.45021 7.8169 1.28745 8.04443 1.28745C8.25572 1.28745 8.41825 1.46649 8.41825 1.71064C8.41825 1.98733 8.41825 2.26403 8.41825 2.54073C8.41825 2.81743 8.41825 3.09413 8.41825 3.35455C8.41825 3.61497 8.27197 3.77773 8.02818 3.77773C7.80064 3.77773 7.65437 3.61497 7.65437 3.35455C7.65437 2.80115 7.65437 2.24776 7.65437 1.71064ZM4.89141 1.69436C4.89141 1.45021 5.07019 1.28745 5.28147 1.28745C5.49276 1.28745 5.65528 1.45021 5.65528 1.69436C5.65528 1.97106 5.65528 2.26403 5.65528 2.54073C5.65528 2.81743 5.65528 3.09413 5.65528 3.37082C5.65528 3.61497 5.50901 3.77773 5.29773 3.77773C5.07019 3.77773 4.90766 3.61497 4.90766 3.37082C4.89141 2.81743 4.89141 2.24776 4.89141 1.69436ZM2.12844 1.69436C2.12844 1.45021 2.29097 1.27117 2.50226 1.27117C2.7298 1.27117 2.87607 1.43394 2.89232 1.69436C2.89232 1.97106 2.89232 2.24776 2.89232 2.52445C2.89232 2.81743 2.89232 3.12668 2.89232 3.41965C2.89232 3.59869 2.74605 3.7289 2.58352 3.76146C2.40474 3.79401 2.24221 3.69635 2.1772 3.54986C2.1447 3.48476 2.1447 3.41965 2.1447 3.35455C2.12845 2.80115 2.12844 2.24776 2.12844 1.69436ZM0.860732 3.51731C0.860732 3.30572 1.02326 3.1104 1.23455 3.06157C1.36457 3.02902 1.49459 3.0453 1.62461 3.02902C1.64086 3.24061 1.64086 3.43593 1.68962 3.63125C1.78714 4.03816 2.19346 4.2823 2.61603 4.23347C3.02234 4.18464 3.33115 3.85912 3.3474 3.41965C3.3474 3.28944 3.3474 3.17551 3.3474 3.0453H4.40383C4.40383 3.14296 4.40383 3.24061 4.40383 3.33827C4.40383 3.85912 4.76138 4.23347 5.24897 4.24975C5.7528 4.24975 6.11036 3.87539 6.11036 3.33827C6.11036 3.24061 6.11036 3.14296 6.11036 3.0453H7.16679C7.16679 3.15923 7.16679 3.27317 7.16679 3.3871C7.16679 3.87539 7.5406 4.24975 8.02818 4.24975C8.49951 4.24975 8.87332 3.87539 8.87332 3.40338C8.87332 3.28944 8.87332 3.17551 8.87332 3.0453H9.81598C9.84849 3.0453 9.88099 3.0453 9.92975 3.06157C9.92975 3.17551 9.92975 3.28944 9.92975 3.40338C9.946 3.89167 10.3036 4.24975 10.7749 4.24975C11.2462 4.24975 11.62 3.87539 11.6363 3.3871C11.6363 3.27317 11.6363 3.17551 11.6363 3.06157H12.6927C12.6927 3.17551 12.6927 3.27317 12.6927 3.3871C12.709 3.89167 13.0665 4.26602 13.5541 4.26602C14.0417 4.26602 14.3993 3.89167 14.4155 3.3871C14.4155 3.28944 14.4155 3.17551 14.4155 3.06157H14.5943C15.0169 3.06157 15.2119 3.24061 15.2119 3.68008V5.34026H0.844481C0.860734 4.70549 0.844479 4.10326 0.860732 3.51731Z" fill="#231F1F"/>
<path d="M13.6517 10.1093C13.4729 10.4348 13.3266 10.7929 13.2291 11.1672C13.1803 11.3463 13.1478 11.5416 13.1153 11.7369C13.0991 11.8997 13.0828 12.0624 13.0828 12.2252C13.0828 12.274 13.0828 12.3066 13.0828 12.3554C13.0828 12.6158 13.0991 12.8762 13.1478 13.1367C13.2454 13.1367 13.3429 13.1367 13.4241 13.1367C13.5054 13.1367 13.5704 13.1529 13.6192 13.1855C13.5704 12.9088 13.5379 12.6321 13.5379 12.3554C13.5379 12.3066 13.5379 12.2577 13.5379 12.2089C13.5542 11.8346 13.6192 11.4765 13.7167 11.1347C13.9767 10.272 14.5293 9.53958 15.2282 9.03502V8.48162C14.5618 8.87225 14.0255 9.42565 13.6517 10.1093ZM17.6173 7.78174C16.9347 7.78174 16.2846 7.92823 15.6995 8.20492C15.537 8.28631 15.3745 8.36769 15.2282 8.46534C14.5781 8.87225 14.0255 9.44193 13.6517 10.1093C13.4729 10.4348 13.3266 10.7929 13.2291 11.1672C13.1803 11.3463 13.1478 11.5416 13.1153 11.7369C13.0991 11.8997 13.0828 12.0624 13.0828 12.2252C13.0828 12.274 13.0828 12.3066 13.0828 12.3554C13.0828 12.6158 13.0991 12.8762 13.1478 13.1367C13.2454 13.6901 13.4404 14.2109 13.7167 14.6829C14.0742 15.3014 14.5781 15.806 15.1794 16.1966C15.3094 16.278 15.4557 16.3594 15.602 16.4408C16.2033 16.75 16.886 16.9128 17.6173 16.9128C20.1203 16.9128 22.1681 14.862 22.1681 12.3554C22.1681 9.84884 20.1203 7.78174 17.6173 7.78174ZM17.6173 16.4245C16.9185 16.4245 16.2684 16.2454 15.6995 15.9525C15.537 15.8711 15.3745 15.7734 15.2282 15.6595C14.5131 15.1387 13.9767 14.4062 13.7167 13.5436C13.6842 13.4134 13.6517 13.2994 13.6192 13.1692C13.5704 12.8925 13.5379 12.6158 13.5379 12.3391C13.5379 12.2903 13.5379 12.2415 13.5379 12.1926C13.5542 11.8183 13.6192 11.4602 13.7167 11.1184C13.9767 10.2557 14.5293 9.52331 15.2282 9.01874C15.3745 8.90481 15.537 8.80715 15.6995 8.72577C16.2684 8.41652 16.9185 8.23748 17.6173 8.23748C19.8765 8.23748 21.713 10.0767 21.713 12.3391C21.713 14.6015 19.8602 16.4245 17.6173 16.4245ZM13.6517 10.1093C13.4729 10.4348 13.3266 10.7929 13.2291 11.1672C13.1803 11.3463 13.1478 11.5416 13.1153 11.7369C13.0991 11.8997 13.0828 12.0624 13.0828 12.2252C13.0828 12.274 13.0828 12.3066 13.0828 12.3554C13.0828 12.6158 13.0991 12.8762 13.1478 13.1367C13.2454 13.1367 13.3429 13.1367 13.4241 13.1367C13.5054 13.1367 13.5704 13.1529 13.6192 13.1855C13.5704 12.9088 13.5379 12.6321 13.5379 12.3554C13.5379 12.3066 13.5379 12.2577 13.5379 12.2089C13.5542 11.8346 13.6192 11.4765 13.7167 11.1347C13.9767 10.272 14.5293 9.53958 15.2282 9.03502V8.48162C14.5618 8.87225 14.0255 9.42565 13.6517 10.1093Z" fill="#231F1F"/>
<path d="M13.7004 13.5435C13.6679 13.4133 13.6354 13.2994 13.6029 13.1692C13.5541 13.1366 13.4891 13.1204 13.4078 13.1204C13.3103 13.1204 13.2128 13.1204 13.1315 13.1204C12.6927 13.1204 12.2539 13.1204 11.8151 13.1204C11.6038 13.1204 11.5225 13.2017 11.5225 13.4133C11.5225 13.9505 11.5225 14.4876 11.5225 15.0247C11.5225 15.2363 11.6038 15.3177 11.8151 15.3177C12.3514 15.3177 12.8877 15.3177 13.4241 15.3177C13.6354 15.3177 13.7166 15.2363 13.7166 15.0247C13.7166 14.9108 13.7166 14.7968 13.7166 14.6829C13.7166 14.5364 13.7166 14.3899 13.7166 14.2272C13.7004 13.9993 13.7166 13.7714 13.7004 13.5435ZM13.2291 14.8294H12.0101V13.6087H13.2291V14.8294Z" fill="#231F1F"/>
<path d="M4.25761 13.1204C3.99756 13.1204 3.73752 13.1204 3.47748 13.1204C3.21744 13.1204 2.95739 13.1204 2.69735 13.1204C2.46981 13.1204 2.38855 13.2017 2.38855 13.4133C2.38855 13.9505 2.38855 14.4713 2.38855 15.0084C2.38855 15.22 2.46981 15.3014 2.6811 15.3014C3.21743 15.3014 3.73752 15.3014 4.27386 15.3014C4.48514 15.3014 4.56641 15.22 4.58266 15.0084C4.58266 14.4713 4.58266 13.9342 4.58266 13.3971C4.55016 13.2017 4.46889 13.1204 4.25761 13.1204ZM4.06257 14.8294H2.84362V13.6087H4.06257V14.8294Z" fill="#231F1F"/>
<path d="M13.7004 10.3208C13.7004 10.2231 13.6841 10.158 13.6354 10.0929C13.5866 10.0278 13.5054 10.0115 13.3916 10.0115C12.8715 10.0115 12.3352 10.0115 11.8151 10.0115C11.5876 10.0115 11.5063 10.0929 11.5063 10.3045C11.5063 10.5649 11.5063 10.8254 11.5063 11.0858C11.5063 11.3462 11.5063 11.6229 11.5063 11.8833C11.5063 12.0949 11.5876 12.1763 11.7988 12.1763C12.2214 12.1763 12.6277 12.1763 13.0503 12.1763C13.1641 12.1763 13.2778 12.1763 13.3916 12.1763C13.4404 12.1763 13.4729 12.1763 13.5054 12.16C13.5216 11.7857 13.5866 11.4276 13.6841 11.0858C13.7004 10.8579 13.7004 10.5975 13.7004 10.3208ZM13.2128 11.7206H11.9939V10.4998H13.2128V11.7206Z" fill="#231F1F"/>
<path d="M4.27386 6.91907C3.99756 6.91907 3.72127 6.91907 3.46123 6.91907C3.20118 6.91907 2.92489 6.91907 2.66484 6.91907C2.46981 6.91907 2.38855 7.00045 2.38855 7.19577C2.38855 7.73289 2.38855 8.27001 2.38855 8.8234C2.38855 9.01872 2.46981 9.1001 2.66484 9.1001C3.21744 9.1001 3.75377 9.1001 4.30636 9.1001C4.48514 9.1001 4.58266 9.01872 4.58266 8.8234C4.58266 8.28628 4.58266 7.73289 4.58266 7.17949C4.55016 7.00045 4.46889 6.91907 4.27386 6.91907ZM4.06257 8.61181H2.84362V7.39108H4.06257V8.61181Z" fill="#231F1F"/>
<path d="M13.4241 6.91907C13.1478 6.91907 12.8878 6.91907 12.6278 6.91907C12.3515 6.91907 12.0752 6.91907 11.7989 6.91907C11.6363 6.91907 11.5388 7.00045 11.5388 7.16321C11.5388 7.73289 11.5388 8.28628 11.5388 8.85595C11.5388 9.01872 11.6363 9.1001 11.7989 9.1001C12.3515 9.1001 12.904 9.1001 13.4566 9.1001C13.6354 9.1001 13.7329 9.01872 13.7329 8.8234C13.7329 8.27001 13.7329 7.73289 13.7329 7.17949C13.7004 7.00045 13.6192 6.91907 13.4241 6.91907ZM13.2291 8.62809H12.0101V7.40736H13.2291V8.62809Z" fill="#231F1F"/>
<path d="M4.25753 10.0115C3.72119 10.0115 3.18485 10.0115 2.64851 10.0115C2.45347 10.0115 2.35596 10.0929 2.35596 10.3045C2.35596 10.5812 2.35596 10.8416 2.35596 11.1021C2.35596 11.3788 2.35596 11.6392 2.35596 11.8996C2.35596 12.1112 2.43722 12.1926 2.64851 12.1926C3.18485 12.1926 3.72119 12.1926 4.27378 12.1926C4.46881 12.1926 4.55007 12.1112 4.55007 11.9159C4.55007 11.3788 4.55007 10.8254 4.55007 10.2882C4.55007 10.1092 4.46881 10.0115 4.25753 10.0115ZM4.06249 11.7206H2.84354V10.4998H4.06249V11.7206Z" fill="#231F1F"/>
<path d="M10.3685 13.1204C9.83221 13.1204 9.29587 13.1204 8.75953 13.1204C8.54824 13.1204 8.46698 13.2017 8.46698 13.4133C8.46698 13.9505 8.46698 14.4876 8.46698 15.041C8.46698 15.2363 8.54824 15.3177 8.74328 15.3177C9.27962 15.3177 9.83221 15.3177 10.3685 15.3177C10.5636 15.3177 10.6448 15.2363 10.6448 15.0247C10.6448 14.7643 10.6448 14.4876 10.6448 14.2272C10.6448 13.9667 10.6448 13.69 10.6448 13.4296C10.6448 13.2017 10.5636 13.1204 10.3685 13.1204ZM10.1735 14.8131H8.95456V13.5924H10.1573V14.8131H10.1735Z" fill="#231F1F"/>
<path d="M7.31306 13.1204C6.77673 13.1204 6.24039 13.1204 5.70405 13.1204C5.50902 13.1204 5.4115 13.2017 5.4115 13.4133V15.0247C5.4115 15.2363 5.49276 15.3177 5.70405 15.3177C6.24039 15.3177 6.79298 15.3177 7.32932 15.3177C7.52435 15.3177 7.60561 15.2363 7.60561 15.041C7.60561 14.7805 7.60561 14.5039 7.60561 14.2434C7.60561 13.983 7.60561 13.7063 7.60561 13.4459C7.60561 13.2017 7.52435 13.1204 7.31306 13.1204ZM7.11803 14.8294H5.89908V13.6087H7.11803V14.8294Z" fill="#231F1F"/>
<path d="M7.31306 6.91907C6.77673 6.91907 6.24039 6.91907 5.68779 6.91907C5.49276 6.91907 5.4115 7.00045 5.4115 7.19577C5.4115 7.73289 5.4115 8.27001 5.4115 8.8234C5.4115 9.01872 5.49276 9.1001 5.68779 9.1001C6.22413 9.1001 6.77673 9.1001 7.31306 9.1001C7.52435 9.1001 7.60561 9.01872 7.60561 8.80713C7.60561 8.5467 7.60561 8.27001 7.60561 8.00958C7.60561 7.74916 7.60561 7.47246 7.60561 7.21204C7.60561 7.00045 7.52435 6.91907 7.31306 6.91907ZM7.11803 8.62809H5.89908V7.40736H7.11803V8.62809Z" fill="#231F1F"/>
<path d="M10.6611 7.17949C10.6611 7.00045 10.5799 6.91907 10.4011 6.91907C9.8485 6.91907 9.29591 6.91907 8.74332 6.91907C8.56454 6.91907 8.48328 7.00045 8.48328 7.19577C8.48328 7.74916 8.48328 8.28628 8.48328 8.83968C8.48328 9.035 8.56454 9.11638 8.74332 9.11638C9.29591 9.11638 9.83225 9.11638 10.3848 9.11638C10.5799 9.11638 10.6611 9.035 10.6611 8.83968C10.6611 8.57926 10.6611 8.30256 10.6611 8.04214C10.6611 7.74916 10.6611 7.45619 10.6611 7.17949ZM10.1736 8.62809H8.9546V7.40736H10.1736V8.62809Z" fill="#231F1F"/>
<path d="M7.31306 10.0115C6.77672 10.0115 6.24039 10.0115 5.70405 10.0115C5.49276 10.0115 5.4115 10.0929 5.4115 10.3045V11.1021C5.4115 11.3625 5.4115 11.6392 5.4115 11.8996C5.4115 12.0949 5.49276 12.1763 5.68779 12.1763C6.22413 12.1763 6.76047 12.1763 7.31306 12.1763C7.52435 12.1763 7.58936 12.0949 7.58936 11.8833C7.58936 11.3462 7.58936 10.8091 7.58936 10.272C7.60561 10.1092 7.52435 10.0115 7.31306 10.0115ZM7.11803 11.7206H5.89908V10.5161H7.11803V11.7206Z" fill="#231F1F"/>
<path d="M10.3685 10.0115C9.83221 10.0115 9.29587 10.0115 8.75953 10.0115C8.5645 10.0115 8.46698 10.0929 8.46698 10.3045C8.46698 10.8416 8.46698 11.3787 8.46698 11.9159C8.46698 12.1275 8.54824 12.2088 8.74328 12.2088C9.27962 12.2088 9.83221 12.2088 10.3685 12.2088C10.5636 12.2088 10.6448 12.1275 10.6448 11.9159C10.6448 11.6554 10.6448 11.3787 10.6448 11.1183C10.6448 10.8579 10.6448 10.5812 10.6448 10.3208C10.6448 10.1092 10.5636 10.0115 10.3685 10.0115ZM10.1735 11.7206H8.95456V10.4998H10.1735V11.7206Z" fill="#231F1F"/>
<path d="M19.2426 11.1997H15.3744C15.2444 11.1997 15.1469 11.102 15.1469 10.9718C15.1469 10.8416 15.2444 10.744 15.3744 10.744H19.2426C19.3726 10.744 19.4701 10.8416 19.4701 10.9718C19.4701 11.102 19.3564 11.1997 19.2426 11.1997Z" fill="#231F1F"/>
<path d="M18.5925 12.3553C18.5275 12.3553 18.4787 12.339 18.4299 12.2902C18.3324 12.1926 18.3324 12.0461 18.4299 11.9647L19.4214 10.9718L18.4299 9.97897C18.3324 9.88131 18.3324 9.73483 18.4299 9.65344C18.5275 9.55579 18.6737 9.55579 18.755 9.65344L20.0715 10.9718L18.755 12.2902C18.7062 12.3228 18.6575 12.3553 18.5925 12.3553Z" fill="#231F1F"/>
<path d="M19.7464 13.7225H15.8782C15.7482 13.7225 15.6507 13.6249 15.6507 13.4947C15.6507 13.3644 15.7482 13.2668 15.8782 13.2668H19.7464C19.8764 13.2668 19.9739 13.3644 19.9739 13.4947C19.9739 13.6249 19.8764 13.7225 19.7464 13.7225Z" fill="#231F1F"/>
<path d="M16.5284 14.8781C16.4634 14.8781 16.4146 14.8619 16.3658 14.813L15.0494 13.4947L16.3658 12.1763C16.4634 12.0786 16.6096 12.0786 16.6909 12.1763C16.7884 12.2739 16.7884 12.4204 16.6909 12.5018L15.6995 13.4947L16.6909 14.4875C16.7884 14.5852 16.7884 14.7317 16.6909 14.813C16.6421 14.8456 16.5771 14.8781 16.5284 14.8781Z" fill="#231F1F"/>
</svg>
