<svg width="23" height="17" viewBox="0 0 23 17" fill="none" xmlns="http://www.w3.org/2000/svg">
<path d="M11.4195 7.6761C9.50671 7.6761 7.9668 6.11771 7.9668 4.21842C7.9668 2.31913 9.50671 0.760742 11.4195 0.760742C13.3322 0.760742 14.8721 2.31913 14.8721 4.21842C14.8721 6.11771 13.316 7.6761 11.4195 7.6761ZM11.4195 1.21527C9.76607 1.21527 8.42067 2.56263 8.42067 4.21842C8.42067 5.87421 9.76607 7.22157 11.4195 7.22157C13.0728 7.22157 14.4182 5.87421 14.4182 4.21842C14.4182 2.56263 13.0728 1.21527 11.4195 1.21527Z" fill="#231F1F"/>
<path d="M16.412 16.929C16.2823 16.929 16.1851 16.8316 16.1851 16.7018V12.4487C16.1851 9.81887 14.0454 7.67609 11.4195 7.67609C8.79349 7.67609 6.65382 9.81887 6.65382 12.4487V16.7018C6.65382 16.8316 6.55656 16.929 6.42689 16.929C6.29721 16.929 6.19995 16.8316 6.19995 16.7018V12.4487C6.19995 9.55914 8.55035 7.22156 11.4195 7.22156C14.2886 7.22156 16.639 9.57537 16.639 12.4487V16.7018C16.639 16.8316 16.5417 16.929 16.412 16.929Z" fill="#231F1F"/>
<path d="M4.64057 9.12668C3.05202 9.12668 1.75525 7.82802 1.75525 6.23717C1.75525 4.64631 3.05202 3.34766 4.64057 3.34766C6.22911 3.34766 7.52588 4.64631 7.52588 6.23717C7.52588 7.82802 6.22911 9.12668 4.64057 9.12668ZM4.64057 3.81842C3.31137 3.81842 2.20912 4.90605 2.20912 6.2534C2.20912 7.60076 3.29516 8.68839 4.64057 8.68839C5.98597 8.68839 7.07201 7.60076 7.07201 6.2534C7.07201 4.90605 5.96976 3.81842 4.64057 3.81842Z" fill="#231F1F"/>
<path d="M0.688605 16.9291C0.558928 16.9291 0.46167 16.8317 0.46167 16.7018V13.2116C0.46167 10.8091 2.40683 8.86115 4.80585 8.86115C5.69738 8.86115 6.57271 9.13711 7.30214 9.65657C7.3994 9.73774 7.43182 9.8676 7.35077 9.98124C7.26972 10.0786 7.14004 10.1111 7.02658 10.0299C6.37819 9.57541 5.60013 9.33191 4.80585 9.33191C2.66618 9.33191 0.93175 11.0689 0.93175 13.2116V16.7018C0.91554 16.8317 0.818282 16.9291 0.688605 16.9291Z" fill="#231F1F"/>
<path d="M18.033 9.31565C16.4445 9.31565 15.1477 8.01699 15.1477 6.42613C15.1477 4.83528 16.4445 3.53662 18.033 3.53662C19.6216 3.53662 20.9183 4.83528 20.9183 6.42613C20.9183 8.01699 19.6216 9.31565 18.033 9.31565ZM18.033 4.00738C16.7038 4.00738 15.6016 5.09501 15.6016 6.44237C15.6016 7.78972 16.6876 8.87735 18.033 8.87735C19.3784 8.87735 20.4645 7.78972 20.4645 6.44237C20.4645 5.09501 19.3622 4.00738 18.033 4.00738Z" fill="#231F1F"/>
<path d="M22.3609 16.9291H0.688605C0.558928 16.9291 0.46167 16.8317 0.46167 16.7018C0.46167 16.5719 0.558928 16.4745 0.688605 16.4745H21.907V13.2116C21.907 12.1727 21.5018 11.1987 20.7724 10.4682C20.0429 9.73774 19.0703 9.33191 18.0329 9.33191C17.2224 9.33191 16.4606 9.57541 15.8122 10.0299C15.7149 10.0949 15.5691 10.0786 15.488 9.98124C15.407 9.88384 15.4394 9.73774 15.5366 9.65657C16.2661 9.13711 17.1252 8.86115 18.0329 8.86115C19.2 8.86115 20.2861 9.31568 21.0965 10.1273C21.9232 10.9552 22.3609 12.0429 22.3609 13.1954V16.9291Z" fill="#231F1F"/>
</svg>
