<svg width="25" height="17" viewBox="0 0 25 17" fill="none" xmlns="http://www.w3.org/2000/svg">
<path d="M17.7304 14.966H1.85055C1.21465 14.966 0.702393 14.453 0.702393 13.8162V8.31474C0.702393 7.67792 1.21465 7.16492 1.85055 7.16492H17.7304C18.3663 7.16492 18.8785 7.67792 18.8785 8.31474V13.8162C18.8785 14.453 18.3663 14.966 17.7304 14.966ZM1.85055 7.66023C1.49727 7.66023 1.19698 7.94326 1.19698 8.31474V13.8162C1.19698 14.17 1.4796 14.4707 1.85055 14.4707H17.7304C18.0837 14.4707 18.384 14.1877 18.384 13.8162V8.31474C18.384 7.96095 18.1013 7.66023 17.7304 7.66023H1.85055Z" fill="#231F1F"/>
<path d="M15.3987 7.55407C15.2574 7.55407 15.1514 7.44793 15.1514 7.30642V4.31688C15.1514 3.96308 14.8688 3.66236 14.4979 3.66236H5.08303C4.72975 3.66236 4.42947 3.9454 4.42947 4.31688V7.30642C4.42947 7.44793 4.32348 7.55407 4.18217 7.55407C4.04086 7.55407 3.93488 7.44793 3.93488 7.30642V4.31688C3.93488 3.68005 4.44713 3.16705 5.08303 3.16705H14.4979C15.1338 3.16705 15.646 3.68005 15.646 4.31688V7.30642C15.646 7.44793 15.5224 7.55407 15.3987 7.55407Z" fill="#231F1F"/>
<path d="M17.6597 7.30641C17.5184 7.30641 17.4124 7.20027 17.4124 7.05876V1.55729C17.4124 1.2035 17.1298 0.902779 16.7588 0.902779H2.80434C2.45106 0.902779 2.15078 1.18581 2.15078 1.55729V7.05876C2.15078 7.20027 2.04479 7.30641 1.90348 7.30641C1.76217 7.30641 1.65619 7.20027 1.65619 7.05876V1.55729C1.65619 0.920469 2.16844 0.407471 2.80434 0.407471H16.7588C17.3947 0.407471 17.907 0.920469 17.907 1.55729V7.05876C17.907 7.20027 17.801 7.30641 17.6597 7.30641Z" fill="#231F1F"/>
<path d="M23.3122 15.1429H20.115C19.6204 15.1429 19.1965 14.736 19.1965 14.223V8.73926C19.1965 8.24395 19.6027 7.8194 20.115 7.8194H23.3122C23.8068 7.8194 24.2307 8.22626 24.2307 8.73926V14.223C24.213 14.736 23.8068 15.1429 23.3122 15.1429ZM20.115 8.35008C19.8854 8.35008 19.7087 8.52698 19.7087 8.75695V14.2407C19.7087 14.4707 19.8854 14.6476 20.115 14.6476H23.3122C23.5418 14.6476 23.7184 14.4707 23.7184 14.2407V8.75695C23.7184 8.52698 23.5418 8.35008 23.3122 8.35008H20.115Z" fill="#231F1F"/>
<path d="M9.78166 7.66021C9.64035 7.66021 9.53436 7.55407 9.53436 7.41256V3.41471C9.53436 3.27319 9.64035 3.16705 9.78166 3.16705C9.92297 3.16705 10.029 3.27319 10.029 3.41471V7.41256C10.0466 7.55407 9.92297 7.66021 9.78166 7.66021Z" fill="#231F1F"/>
<path d="M18.6136 11.8527H0.949686C0.808375 11.8527 0.702393 11.7465 0.702393 11.605C0.702393 11.4635 0.808375 11.3574 0.949686 11.3574H18.6136C18.7549 11.3574 18.8609 11.4635 18.8609 11.605C18.8609 11.7465 18.7549 11.8527 18.6136 11.8527Z" fill="#231F1F"/>
<path d="M3.95255 16.5758C3.81124 16.5758 3.70526 16.4696 3.70526 16.3281V14.7184C3.70526 14.5768 3.81124 14.4707 3.95255 14.4707C4.09386 14.4707 4.19985 14.5768 4.19985 14.7184V16.3281C4.19985 16.4696 4.0762 16.5758 3.95255 16.5758Z" fill="#231F1F"/>
<path d="M20.5036 16.5227C20.3623 16.5227 20.2563 16.4165 20.2563 16.275V15.0721C20.2563 14.9306 20.3623 14.8245 20.5036 14.8245C20.6449 14.8245 20.7509 14.9306 20.7509 15.0721V16.275C20.7685 16.4165 20.6449 16.5227 20.5036 16.5227Z" fill="#231F1F"/>
<path d="M22.9236 16.5227C22.7823 16.5227 22.6763 16.4165 22.6763 16.275V15.0721C22.6763 14.9306 22.7823 14.8245 22.9236 14.8245C23.0649 14.8245 23.1709 14.9306 23.1709 15.0721V16.275C23.1709 16.4165 23.0649 16.5227 22.9236 16.5227Z" fill="#231F1F"/>
<path d="M21.7224 8.17321C21.5811 8.17321 21.4751 8.06707 21.4751 7.92555V6.36887C21.4751 6.22735 21.5811 6.12122 21.7224 6.12122C21.8637 6.12122 21.9697 6.22735 21.9697 6.36887V7.90787C21.9697 8.04938 21.846 8.17321 21.7224 8.17321Z" fill="#231F1F"/>
<path d="M15.6284 16.5758C15.4871 16.5758 15.3811 16.4696 15.3811 16.3281V14.7184C15.3811 14.5768 15.4871 14.4707 15.6284 14.4707C15.7697 14.4707 15.8757 14.5768 15.8757 14.7184V16.3281C15.8757 16.4696 15.7697 16.5758 15.6284 16.5758Z" fill="#231F1F"/>
<path d="M22.9942 6.42189H20.4152C20.1326 6.42189 19.8853 6.29807 19.744 6.10348C19.638 5.94427 19.6204 5.74969 19.691 5.57279L20.2386 4.24607C20.3446 3.98073 20.6272 3.80383 20.9628 3.80383H22.4643C22.7999 3.80383 23.0825 3.98073 23.1885 4.24607L23.7361 5.57279C23.8067 5.74969 23.7891 5.94427 23.6831 6.10348C23.5241 6.29807 23.2768 6.42189 22.9942 6.42189ZM20.9628 4.31683C20.8392 4.31683 20.7332 4.3699 20.6979 4.44066L20.1503 5.76738C20.1503 5.78507 20.1326 5.80276 20.1679 5.82045C20.2033 5.87352 20.2916 5.92658 20.4152 5.92658H22.9942C23.1178 5.92658 23.2061 5.87352 23.2415 5.82045C23.2591 5.78507 23.2591 5.76738 23.2591 5.76738L22.7115 4.44066C22.6939 4.38759 22.5879 4.31683 22.4466 4.31683H20.9628Z" fill="#231F1F"/>
<path d="M22.2523 11.8173C22.4279 11.8173 22.5703 11.6748 22.5703 11.4989C22.5703 11.323 22.4279 11.1805 22.2523 11.1805C22.0767 11.1805 21.9344 11.323 21.9344 11.4989C21.9344 11.6748 22.0767 11.8173 22.2523 11.8173Z" fill="#231F1F"/>
</svg>
