<svg width="21" height="21" viewBox="0 0 21 21" fill="none" xmlns="http://www.w3.org/2000/svg">
<path d="M20.0442 1.78837C20.0442 7.4635 20.0442 13.1319 20.0442 18.8071C19.9374 19.0684 19.864 19.3498 19.7106 19.5776C19.3703 20.0734 18.8566 20.2476 18.2628 20.2476C13.5791 20.2476 8.88875 20.2476 4.20507 20.2476C3.45782 20.2476 2.71057 20.2476 1.96331 20.2476C1.56967 20.2476 1.19604 20.1538 0.882466 19.9059C0.415433 19.5374 0.235291 19.0416 0.235291 18.4587C0.235291 13.4134 0.235291 8.37474 0.235291 3.32943C0.235291 2.90731 0.235291 2.48519 0.235291 2.06978C0.241962 1.50695 0.428776 1.01783 0.902481 0.69622C1.12933 0.542114 1.40954 0.468411 1.66975 0.361206C7.32085 0.361206 12.9653 0.361206 18.6164 0.361206C18.6497 0.374607 18.6831 0.388007 18.7231 0.394707C19.1034 0.475111 19.4237 0.662719 19.6772 0.964231C19.8774 1.19874 19.9574 1.48685 20.0442 1.78837ZM13.4123 19.2828C13.4857 19.2828 13.4857 19.2828 13.5457 19.2828C15.0336 19.2828 16.5147 19.2828 18.0026 19.2828C18.7165 19.2828 19.0901 18.9076 19.0901 18.1974C19.0901 12.9309 19.0901 7.66451 19.0901 2.39809C19.0901 1.68116 18.7165 1.30595 18.0092 1.30595C12.7651 1.30595 7.52101 1.30595 2.27689 1.30595C1.563 1.30595 1.18938 1.68116 1.18938 2.39139C1.18938 7.65781 1.18938 12.9242 1.18938 18.1907C1.18938 18.9076 1.563 19.2828 2.27689 19.2828C4.61873 19.2828 6.96057 19.2828 9.3024 19.2828C9.36912 19.2828 9.43584 19.2828 9.49589 19.2828C9.49589 17.3397 9.49589 15.5641 9.49589 13.6345C8.64856 13.6345 7.67446 13.6345 6.82713 13.6345C6.82713 12.3413 6.82713 10.9409 6.82713 9.64779C7.67446 9.64779 8.58184 9.64779 9.44251 9.64779C9.44251 9.13187 9.44251 8.64275 9.44251 8.14693C9.43584 7.61761 9.52925 7.10169 9.70272 6.59917C10.2565 5.0112 11.5375 3.71805 13.5991 3.73145C14.6132 3.73815 15.6207 3.73145 16.6348 3.73145C16.7015 3.73145 16.9684 3.73145 17.0418 3.73145C17.0418 5.0246 17.0418 6.43166 17.0418 7.72481C16.9617 7.72481 16.6949 7.72481 16.6282 7.72481C15.7074 7.72481 14.9268 7.72481 14.0061 7.72481C13.5391 7.72481 13.4723 7.78512 13.4723 8.25414C13.4723 8.64945 13.4723 9.04477 13.4723 9.44009C13.4723 9.50709 13.4723 9.57409 13.4723 9.65449C14.5532 9.65449 15.534 9.65449 16.5948 9.65449C16.5948 10.9409 16.5948 12.281 16.5948 13.5675C15.534 13.5675 14.4798 13.5675 13.419 13.5675C13.4123 15.5038 13.4123 17.3464 13.4123 19.2828ZM10.1497 12.951C10.1497 15.1755 10.1497 17.1052 10.1497 19.2962C11.0371 19.2962 11.9044 19.2962 12.7918 19.2962C12.7918 17.0851 12.7918 15.1554 12.7918 12.9376C13.8993 12.9376 14.9869 12.9376 16.0677 12.9376C16.0677 12.0465 16.0677 11.1755 16.0677 10.291C14.9668 10.291 13.8793 10.291 12.7785 10.291C12.7785 9.54729 12.7785 8.82366 12.7785 8.10003C12.7785 7.3697 13.1654 6.98778 13.8927 6.98778C14.6599 6.98778 15.4272 6.98778 16.1945 6.98778C16.2612 6.98778 16.3279 6.98778 16.3946 6.98778C16.3946 6.08995 16.3946 5.21891 16.3946 4.32777C16.3079 4.32777 16.2412 4.32777 16.1745 4.32777C15.3338 4.32777 14.4998 4.31437 13.6592 4.33447C13.3322 4.34117 12.9853 4.39477 12.6717 4.49528C11.1438 4.9978 10.1564 6.36466 10.1364 7.97942C10.1297 8.67625 10.1364 9.37978 10.1364 10.0766C10.1364 10.1436 10.1364 10.2106 10.1364 10.2977C9.24236 10.2977 8.37501 10.2977 7.51433 10.2977C7.51433 11.1889 7.51433 12.0599 7.51433 12.9443C8.39502 12.951 9.2557 12.951 10.1497 12.951Z" fill="#C6343F"/>
</svg>
