<svg width="21" height="21" viewBox="0 0 21 21" fill="none" xmlns="http://www.w3.org/2000/svg">
<path d="M16.0713 20.4302C12.6353 20.4302 9.20596 20.4302 5.76993 20.4302C5.7299 20.4168 5.68319 20.4034 5.64316 20.3967C3.50148 20.1555 1.70674 18.6345 1.13296 16.5441C1.04622 16.2224 0.999519 15.8941 0.9328 15.5725C0.9328 12.1219 0.9328 8.67793 0.9328 5.22729C0.946144 5.18038 0.959488 5.12678 0.96616 5.07988C1.25972 2.43997 3.49481 0.389682 6.13688 0.376282C9.31938 0.356181 12.5085 0.356181 15.691 0.376282C18.5466 0.389682 20.8885 2.74148 20.9018 5.6092C20.9218 8.79854 20.9151 11.9946 20.9018 15.1839C20.8951 17.4419 19.4206 19.452 17.279 20.1488C16.892 20.2828 16.4783 20.3431 16.0713 20.4302ZM10.9273 1.54213C9.3861 1.54213 7.84489 1.54213 6.30368 1.54213C6.05682 1.54213 5.80996 1.54883 5.5631 1.59573C3.53484 1.94415 2.10705 3.64602 2.10705 5.70971C2.10038 8.83874 2.10705 11.9678 2.10705 15.0901C2.10705 15.3179 2.1204 15.5457 2.16043 15.7735C2.51404 17.8238 4.20203 19.251 6.28366 19.251C9.37943 19.251 12.4752 19.251 15.571 19.251C15.8111 19.251 16.0513 19.2376 16.2915 19.1974C18.3398 18.8356 19.7476 17.1471 19.7476 15.0566C19.7476 11.9477 19.7476 8.83874 19.7476 5.72981C19.7476 5.4819 19.7342 5.23399 19.6875 4.99278C19.3005 2.92239 17.6459 1.54883 15.5443 1.54883C13.9964 1.54213 12.4618 1.54213 10.9273 1.54213Z" fill="#C6343F"/>
<path d="M10.914 5.40863C13.6561 5.39523 15.8912 7.63312 15.8912 10.3936C15.8979 13.1475 13.6628 15.392 10.9206 15.392C8.18516 15.392 5.96342 13.1743 5.95007 10.4137C5.93673 7.66662 8.15847 5.42203 10.914 5.40863ZM7.11766 10.3869C7.11098 12.4975 8.81899 14.2128 10.9206 14.2128C13.0156 14.2128 14.7103 12.5109 14.7236 10.407C14.7303 8.29645 13.029 6.58118 10.9206 6.58118C8.82566 6.58118 7.131 8.28305 7.11766 10.3869Z" fill="#C6343F"/>
<path d="M16.4917 5.39497C16.1647 5.39497 15.9112 5.14706 15.9045 4.81875C15.9045 4.49044 16.1581 4.22913 16.4783 4.22913C16.7986 4.22913 17.0654 4.49044 17.0654 4.81205C17.0721 5.12696 16.8119 5.39497 16.4917 5.39497Z" fill="#C6343F"/>
</svg>
