<svg width="21" height="16" viewBox="0 0 21 16" fill="none" xmlns="http://www.w3.org/2000/svg">
<path d="M0.840332 8.40036C0.913723 8.07875 0.967099 7.75044 1.05383 7.43552C1.30069 6.55109 1.74771 5.76715 2.34151 5.07032C2.4616 4.92962 2.47495 4.82241 2.40823 4.65491C1.97456 3.52256 1.55423 2.38351 1.1339 1.25117C1.10721 1.17076 1.07385 1.09036 1.04049 0.983154C1.40077 1.05016 1.74104 1.11046 2.07463 1.17076C3.70258 1.46557 5.33052 1.76039 6.96514 2.0485C7.07189 2.0686 7.18531 2.0552 7.28539 2.0284C8.84661 1.59288 10.4412 1.45887 12.0558 1.60628C12.8698 1.67998 13.6571 1.84079 14.451 2.0418C14.6312 2.0887 14.8447 2.0284 15.0448 1.9949C16.8662 1.66658 18.6877 1.33827 20.5091 1.00326C20.5425 0.996555 20.5691 1.00326 20.6159 1.00326C20.3823 1.63308 20.1488 2.25621 19.9153 2.87933C19.6885 3.48236 19.4683 4.09208 19.2348 4.68841C19.1814 4.82912 19.1947 4.91622 19.2881 5.03682C19.9954 5.86766 20.4958 6.8057 20.7093 7.89114C21.2964 10.8125 19.3882 13.6132 16.4993 14.1157C15.1049 14.3569 13.8172 14.0621 12.6429 13.2715C12.6096 13.2514 12.5762 13.2313 12.5295 13.1978C11.9691 13.9013 11.4086 14.6048 10.8282 15.3285C10.2544 14.6115 9.69394 13.908 9.15352 13.2313C8.71985 13.4457 8.31954 13.6869 7.89253 13.8544C4.86349 15.047 1.42746 13.0638 0.913721 9.84092C0.893706 9.70022 0.86702 9.55951 0.840332 9.41881C0.840332 9.07709 0.840332 8.74208 0.840332 8.40036ZM1.72102 8.84258C1.61427 11.0068 3.30226 13.1911 5.85093 13.3184C8.20611 13.4323 10.2344 11.6366 10.3878 9.2044C10.5413 6.8325 8.69983 4.75541 6.2846 4.61471C3.80265 4.4673 1.75438 6.45058 1.72102 8.84258ZM19.9353 8.85598C19.9153 6.47738 17.8804 4.4606 15.3584 4.61471C12.9365 4.76211 11.1084 6.8392 11.2618 9.2111C11.422 11.6567 13.4702 13.439 15.8054 13.3184C18.3741 13.1911 20.0354 10.9934 19.9353 8.85598ZM5.32385 3.77717C6.49811 3.63647 7.57895 3.82407 8.58641 4.3869C9.59387 4.94972 10.3278 5.78055 10.8215 6.8258C11.9958 4.5879 13.8105 3.56276 16.3125 3.75037C13.0899 1.91449 8.26616 2.0552 5.32385 3.77717ZM5.4306 2.66492C4.44316 2.49072 3.42903 2.30311 2.38154 2.1155C2.64842 2.83243 2.90862 3.50916 3.14214 4.14569C3.91608 3.64317 4.67668 3.15405 5.4306 2.66492ZM18.5009 4.18589C18.7544 3.50916 19.0079 2.83243 19.2748 2.1222C18.2273 2.30981 17.2132 2.49072 16.179 2.67833C16.5927 2.91954 16.993 3.13394 17.3733 3.37515C17.7536 3.62306 18.1139 3.90448 18.5009 4.18589ZM11.8423 12.6617C11.482 12.1257 11.1418 11.6232 10.8282 11.1609C10.5079 11.6366 10.1677 12.1391 9.81404 12.655C10.1343 13.0571 10.4746 13.4859 10.8282 13.9281C11.1885 13.4859 11.522 13.0638 11.8423 12.6617Z" fill="#C6343F"/>
<path d="M8.6531 8.96347C8.6531 10.4107 7.49886 11.5766 6.05773 11.5833C4.6166 11.5833 3.45569 10.4241 3.45569 8.97687C3.45569 7.52291 4.60993 6.36376 6.05106 6.36376C7.49219 6.35036 8.6531 7.50951 8.6531 8.96347ZM7.78575 8.97017C7.78575 8.00533 7.01181 7.2281 6.05773 7.2214C5.09698 7.2214 4.31636 7.99863 4.31636 8.95677C4.31636 9.91491 5.09697 10.7055 6.05106 10.7055C7.00514 10.7122 7.78575 9.92831 7.78575 8.97017Z" fill="#C6343F"/>
<path d="M13.0032 8.94323C13.0165 7.49597 14.1841 6.34353 15.6252 6.35693C17.0663 6.37033 18.2139 7.54288 18.2006 8.99014C18.1872 10.4374 17.0196 11.5898 15.5718 11.5831C14.1441 11.5697 12.9898 10.3905 13.0032 8.94323ZM13.8705 8.95663C13.8705 9.92147 14.6445 10.7054 15.5985 10.7054C16.5526 10.7054 17.3399 9.92817 17.3399 8.97004C17.3399 8.0119 16.566 7.22126 15.6119 7.22126C14.6511 7.22126 13.8705 7.9985 13.8705 8.95663Z" fill="#C6343F"/>
<path d="M5.63074 8.53467C5.93097 8.53467 6.19785 8.53467 6.4714 8.53467C6.4714 8.82278 6.4714 9.0975 6.4714 9.38561C6.19118 9.38561 5.91763 9.38561 5.63074 9.38561C5.63074 9.1042 5.63074 8.82278 5.63074 8.53467Z" fill="#C6343F"/>
<path d="M15.1782 9.40547C15.1782 9.10396 15.1782 8.82925 15.1782 8.54114C15.4584 8.54114 15.7387 8.54114 16.0389 8.54114C16.0389 8.80245 16.0456 9.05706 16.0322 9.31837C16.0322 9.34517 15.9655 9.39877 15.9322 9.39877C15.692 9.40547 15.4451 9.40547 15.1782 9.40547Z" fill="#C6343F"/>
</svg>
