<svg width="150" height="66" viewBox="0 0 150 66" fill="none" xmlns="http://www.w3.org/2000/svg">
<path d="M79.0582 4.82878L78.5445 6.1644C86.25 7.80824 92.0035 14.6404 92.0035 22.8082C92.0035 32.1575 84.4007 39.8117 75 39.8117C65.5993 39.8117 57.9966 32.2089 57.9966 22.8082C57.9966 14.6404 63.8014 7.80824 71.4555 6.1644L70.9418 4.82878C62.774 6.6781 56.6096 14.024 56.6096 22.7569C56.6096 32.8767 64.8802 41.1473 75 41.1473C85.1199 41.1473 93.3904 32.8767 93.3904 22.7569C93.3904 14.024 87.2774 6.6781 79.0582 4.82878ZM75 5.75344C75.7192 5.75344 76.4384 5.80481 77.1062 5.90755L77.6199 4.57193C76.7466 4.46919 75.9247 4.36646 75 4.36646C74.1267 4.36646 73.2535 4.41782 72.3802 4.57193L72.8939 5.90755C73.613 5.80481 74.2809 5.75344 75 5.75344Z" fill="#C6343F"/>
<path d="M81.2672 13.613V19.5206C80.9076 21.113 79.3151 21.8836 73.8699 21.935C71.3528 21.9863 69.7603 22.6541 68.7329 23.4247V13.613H66.8836V31.9521H68.7329V25.9418C69.0411 25.274 70.1199 23.6302 73.9213 23.5788C76.8494 23.5274 79.572 23.3733 81.2672 22.2432V31.9007H83.1165V13.613H81.2672Z" fill="#C6343F"/>
<path d="M74.6918 0.410959C74.7946 0.256849 74.8973 0.15411 75.0001 0C75.1028 0.15411 75.2055 0.256849 75.3083 0.410959C75.2055 0.565069 75.1028 0.667808 75.0001 0.821918C74.8973 0.667808 74.7946 0.513699 74.6918 0.410959Z" fill="#C6343F"/>
<path d="M78.75 1.33561C78.6986 1.1815 78.6473 1.02739 78.5959 0.873283C78.75 0.770543 78.8527 0.667803 79.0582 0.565063C78.9555 0.821913 78.8527 1.07876 78.75 1.33561Z" fill="#C6343F"/>
<path d="M71.1987 1.33561C71.25 1.1815 71.3014 1.02739 71.3528 0.873283C71.1987 0.770543 71.0959 0.667803 70.8904 0.565063C71.0446 0.873283 71.0959 1.07876 71.1987 1.33561Z" fill="#C6343F"/>
<path d="M78.75 1.3357L77.774 3.85282C76.8493 3.75008 75.9247 3.64734 75 3.64734C74.0753 3.64734 73.0993 3.69871 72.226 3.85282L71.25 1.3357L73.7671 2.97953L75.0514 0.77063L76.3356 2.97953L78.75 1.3357Z" fill="#C6343F"/>
<path d="M24.5035 49.1096C20.0857 49.1096 16.4898 52.7055 16.4898 57.1747C16.4898 61.5925 20.0857 65.2398 24.5035 65.2398C28.9213 65.2398 32.4658 61.6439 32.4658 57.1747C32.5172 52.7569 28.9213 49.1096 24.5035 49.1096ZM24.5035 63.5959C20.959 63.5959 18.1336 60.7192 18.1336 57.1747C18.1336 53.5788 20.959 50.7535 24.5035 50.7535C28.048 50.7535 30.8734 53.6302 30.8734 57.1747C30.8734 60.7192 28.048 63.5959 24.5035 63.5959Z" fill="#231F1F"/>
<path d="M32.0035 50.7535H36.6268V65.2398H38.2192V50.7535H42.8425V49.1096H32.0035V50.7535Z" fill="#231F1F"/>
<path d="M45.1028 65.2398H55.8391V63.5959H46.6952V57.9966H51.5754V56.3528H46.6952V50.7535H55.8391V49.1096H45.1028V65.2398Z" fill="#231F1F"/>
<path d="M59.7432 49.1096H58.1507V65.2398H67.3459V63.5959H59.7432V49.1096Z" fill="#231F1F"/>
<path d="M86.8151 49.1096C82.3973 49.1096 78.8528 52.7055 78.8528 57.1747C78.8528 61.5925 82.4487 65.2398 86.8151 65.2398C91.2329 65.2398 94.8288 61.6439 94.8288 57.1747C94.8288 52.7569 91.2329 49.1096 86.8151 49.1096ZM86.8151 63.5959C83.2706 63.5959 80.4453 60.7192 80.4453 57.1747C80.4453 53.5788 83.2706 50.7535 86.8151 50.7535C90.3596 50.7535 93.185 53.6302 93.185 57.1747C93.185 60.7192 90.3596 63.5959 86.8151 63.5959Z" fill="#231F1F"/>
<path d="M123.853 65.2398H134.589V63.6473H125.445V62.4144C125.445 61.2329 125.805 60.822 126.473 60.5138C127.14 60.1542 128.219 60.0514 129.349 60.0514C131.25 60.0514 132.586 59.5377 133.459 58.6644L132.329 57.5343C131.815 58.048 130.942 58.459 129.349 58.459C128.116 58.459 126.832 58.5617 125.753 59.0754C125.651 59.1268 125.548 59.1781 125.445 59.2295V50.7535H134.589V49.161H123.853V65.2398Z" fill="#231F1F"/>
<path d="M138.545 49.1096H136.901V65.2398H146.096V63.5959H138.545V49.1096Z" fill="#231F1F"/>
<path d="M150 49.1096H148.408V65.1884H150V49.1096Z" fill="#231F1F"/>
<path d="M12.637 54.298C12.3288 55.685 10.9418 56.4041 6.16444 56.4555C3.95554 56.4555 2.51718 57.0719 1.6439 57.7398V49.1096H6.10352e-05V65.2398H1.59253V60C1.84938 59.435 2.8254 57.9452 6.16444 57.8939C8.73294 57.8425 11.1473 57.6884 12.637 56.7124V65.2398H14.2295V49.1096H12.637V54.298Z" fill="#231F1F"/>
<path d="M107.106 64.0069L106.849 63.6987L106.593 63.3904L103.973 60.411C104.127 60.3596 104.281 60.3083 104.435 60.2055C104.795 60.0514 105.206 59.8459 105.514 59.6404C107.517 58.3048 108.545 55.8391 107.928 53.4761C107.26 50.9076 105 49.161 102.329 49.1096H97.2432V65.2398H98.8357V63.4418C98.8357 63.0309 98.9384 62.774 99.1953 62.5172C99.4521 62.2603 99.8631 62.0035 100.48 61.7466C100.993 61.4898 101.661 61.2843 102.329 61.0788L105.514 64.7774L105.771 65.0856L105.976 65.2911H108.082L107.106 64.0069ZM99.9145 60.2569C99.5549 60.411 99.2467 60.5651 98.9384 60.7706V50.7535H102.329C104.281 50.7535 105.925 52.0377 106.438 53.887C106.901 55.7363 106.027 57.637 104.332 58.5103C102.843 59.2295 101.25 59.6404 99.9145 60.2569Z" fill="#231F1F"/>
<path d="M120.616 59.1267C120.308 58.7158 119.949 58.4076 119.589 58.1507C121.027 56.9178 121.747 54.9144 121.233 53.0137C120.668 50.7021 118.562 49.1096 116.199 49.1096H110.753V57.6884V59.7432V60.6678V62.6199V63.6473V64.6747V65.1884H117.894C118.151 65.1884 118.408 65.137 118.664 65.0856C119.743 64.8288 120.616 64.0582 121.079 63.0308C121.593 61.798 121.438 60.2569 120.616 59.1267ZM112.295 58.8699V50.7535H116.301C117.894 50.8048 119.229 51.935 119.64 53.4761C120.051 55.0685 119.281 56.7124 117.843 57.4829C116.199 58.3048 113.476 59.1781 113.116 59.3836C112.757 59.5377 112.346 59.7946 112.295 59.7946V58.8699ZM119.538 62.4144C119.178 63.185 118.562 63.5959 117.843 63.5959H112.295V62.363V61.5411C112.86 61.1815 113.476 60.8733 113.938 60.7192C114.863 60.3082 116.147 59.9487 117.534 59.3836C117.637 59.3836 117.74 59.3322 117.843 59.3322C118.408 59.3322 118.973 59.5891 119.332 60.1028C119.795 60.7706 119.846 61.6439 119.538 62.4144Z" fill="#231F1F"/>
</svg>
